<svg xmlns="http://www.w3.org/2000/svg" xmlns:xlink="http://www.w3.org/1999/xlink" viewBox="0 0 32.74 40.77" width="60px"><defs><style>.cls-1,.cls-3{fill:none;}.cls-2{clip-path:url(#clip-path);}.cls-3{stroke:#00a87f;stroke-miterlimit:10;stroke-width:1.5px;}.cls-4{fill:#00a87f;}</style><clipPath id="clip-path" transform="translate(0 0)"><rect class="cls-1" width="32.74" height="40.77"/></clipPath></defs><title>building-1</title><g class="cls-2"><line class="cls-3" y1="11.27" x2="32.74" y2="11.27"/><rect class="cls-3" x="7.42" y="31.64" width="6.67" height="8.38"/><rect class="cls-3" x="1.68" y="0.75" width="28.83" height="39.27"/></g><rect class="cls-4" x="4.17" y="16.19" width="4.18" height="1.83"/><rect class="cls-4" x="10.76" y="16.19" width="4.18" height="1.83"/><rect class="cls-4" x="17.34" y="16.19" width="4.18" height="1.83"/><rect class="cls-4" x="23.93" y="16.19" width="4.18" height="1.83"/><rect class="cls-4" x="4.17" y="20.82" width="4.18" height="1.83"/><rect class="cls-4" x="10.76" y="20.82" width="4.18" height="1.83"/><rect class="cls-4" x="17.34" y="20.82" width="4.18" height="1.83"/><rect class="cls-4" x="23.93" y="20.82" width="4.18" height="1.83"/><rect class="cls-4" x="4.17" y="25.45" width="4.18" height="1.83"/><rect class="cls-4" x="10.76" y="25.45" width="4.18" height="1.83"/><rect class="cls-4" x="17.34" y="25.45" width="4.18" height="1.83"/><rect class="cls-4" x="23.93" y="25.45" width="4.18" height="1.83"/><g class="cls-2"><path class="cls-4" d="M16.61,5.93A6.39,6.39,0,0,1,16,8.59a6.31,6.31,0,0,1-.63-2.66A6.29,6.29,0,0,1,16,3.28a6.37,6.37,0,0,1,.62,2.65" transform="translate(0 0)"/><path class="cls-4" d="M17.23,6.93A4.33,4.33,0,0,1,16,8.59a5.17,5.17,0,0,1,.34-2.18,4.23,4.23,0,0,1,1.24-1.66,5.19,5.19,0,0,1-.34,2.18" transform="translate(0 0)"/><path class="cls-4" d="M17.73,7.8A3.41,3.41,0,0,1,16,8.59a4.57,4.57,0,0,1,1.14-1.75,3.43,3.43,0,0,1,1.75-.79A4.6,4.6,0,0,1,17.73,7.8" transform="translate(0 0)"/><path class="cls-4" d="M17.38,8.67A2.45,2.45,0,0,1,16,8.59a2.68,2.68,0,0,1,1.23-.79,2.35,2.35,0,0,1,1.39.08,2.77,2.77,0,0,1-1.23.79" transform="translate(0 0)"/><path class="cls-4" d="M15,6.93a4.33,4.33,0,0,0,1.24,1.66,5.17,5.17,0,0,0-.34-2.18,4.23,4.23,0,0,0-1.24-1.66A5.19,5.19,0,0,0,15,6.93" transform="translate(0 0)"/><path class="cls-4" d="M14.47,7.8a3.41,3.41,0,0,0,1.74.79,4.43,4.43,0,0,0-1.14-1.75,3.43,3.43,0,0,0-1.75-.79A4.6,4.6,0,0,0,14.47,7.8" transform="translate(0 0)"/><path class="cls-4" d="M14.82,8.67a2.45,2.45,0,0,0,1.39-.08A2.68,2.68,0,0,0,15,7.8a2.35,2.35,0,0,0-1.39.08,2.77,2.77,0,0,0,1.23.79" transform="translate(0 0)"/></g></svg>