<svg xmlns="http://www.w3.org/2000/svg" xmlns:xlink="http://www.w3.org/1999/xlink" viewBox="0 0 30.33 35.39" width="60px"><defs><style>.cls-1,.cls-3{fill:none;}.cls-2{clip-path:url(#clip-path);}.cls-3{stroke:#00a87f;stroke-miterlimit:10;stroke-width:1.5px;}.cls-4{fill:#00a87f;}</style><clipPath id="clip-path" transform="translate(0 0)"><rect class="cls-1" width="30.33" height="35.39"/></clipPath></defs><title>building-3</title><g class="cls-2"><rect class="cls-3" x="9.83" y="26.27" width="10.66" height="8.38"/><polygon class="cls-3" points="29.58 34.64 0.75 34.64 0.75 5.56 29.58 0.88 29.58 34.64"/></g><rect class="cls-4" x="3.23" y="15.45" width="6.59" height="1.83"/><rect class="cls-4" x="9.82" y="15.45" width="4.18" height="1.83"/><rect class="cls-4" x="16.41" y="15.45" width="4.18" height="1.83"/><rect class="cls-4" x="23" y="15.45" width="4.18" height="1.83"/><rect class="cls-4" x="3.23" y="20.08" width="6.59" height="1.83"/><rect class="cls-4" x="9.82" y="20.08" width="4.18" height="1.83"/><rect class="cls-4" x="16.41" y="20.08" width="4.18" height="1.83"/><rect class="cls-4" x="23" y="20.08" width="4.18" height="1.83"/><g class="cls-2"><path class="cls-4" d="M15.67,9.59a6.39,6.39,0,0,1-.62,2.66,6.39,6.39,0,0,1-.62-2.66,6.37,6.37,0,0,1,.62-2.65,6.37,6.37,0,0,1,.62,2.65" transform="translate(0 0)"/><path class="cls-4" d="M16.29,10.59a4.22,4.22,0,0,1-1.24,1.66,5.38,5.38,0,0,1,.34-2.18,4.2,4.2,0,0,1,1.25-1.66,5.29,5.29,0,0,1-.35,2.18" transform="translate(0 0)"/><path class="cls-4" d="M16.8,11.46a3.43,3.43,0,0,1-1.75.79A4.52,4.52,0,0,1,16.2,10.5,3.43,3.43,0,0,1,18,9.71a4.6,4.6,0,0,1-1.15,1.75" transform="translate(0 0)"/><path class="cls-4" d="M16.45,12.33a2.47,2.47,0,0,1-1.4-.08,2.75,2.75,0,0,1,1.23-.79,2.38,2.38,0,0,1,1.4.08,2.77,2.77,0,0,1-1.23.79" transform="translate(0 0)"/><path class="cls-4" d="M14,10.59a4.33,4.33,0,0,0,1.24,1.66,5.19,5.19,0,0,0-.34-2.18,4.2,4.2,0,0,0-1.25-1.66A5.29,5.29,0,0,0,14,10.59" transform="translate(0 0)"/><path class="cls-4" d="M13.54,11.46a3.41,3.41,0,0,0,1.74.79,4.52,4.52,0,0,0-1.15-1.75,3.41,3.41,0,0,0-1.74-.79,4.6,4.6,0,0,0,1.15,1.75" transform="translate(0 0)"/><path class="cls-4" d="M13.88,12.33a2.47,2.47,0,0,0,1.4-.08,2.68,2.68,0,0,0-1.23-.79,2.38,2.38,0,0,0-1.4.08,2.85,2.85,0,0,0,1.23.79" transform="translate(0 0)"/><line class="cls-3" x1="15.05" y1="26.27" x2="15.05" y2="34.64"/></g></svg>