<svg xmlns="http://www.w3.org/2000/svg" xmlns:xlink="http://www.w3.org/1999/xlink" viewBox="0 0 32.74 37.88" width="60px"><defs><style>.cls-1,.cls-3{fill:none;}.cls-2{clip-path:url(#clip-path);}.cls-3{stroke:#00a87f;stroke-miterlimit:10;stroke-width:1.5px;}.cls-4{fill:#00a87f;}</style><clipPath id="clip-path" transform="translate(0 0)"><rect class="cls-1" width="32.74" height="37.88"/></clipPath></defs><title>Vector Smart Object</title><g class="cls-2"><line class="cls-3" y1="13.38" x2="32.74" y2="13.38"/><rect class="cls-3" x="12.77" y="28.75" width="6.66" height="8.38"/><polygon class="cls-3" points="30.52 37.13 1.68 37.13 1.68 8.86 15.98 0.86 30.52 8.86 30.52 37.13"/></g><rect class="cls-4" x="4.17" y="17.93" width="4.18" height="1.83"/><rect class="cls-4" x="10.76" y="17.93" width="4.18" height="1.83"/><rect class="cls-4" x="17.34" y="17.93" width="4.18" height="1.83"/><rect class="cls-4" x="23.93" y="17.93" width="4.18" height="1.83"/><rect class="cls-4" x="4.17" y="22.56" width="4.18" height="1.83"/><rect class="cls-4" x="10.76" y="22.56" width="4.18" height="1.83"/><rect class="cls-4" x="17.34" y="22.56" width="4.18" height="1.83"/><rect class="cls-4" x="23.93" y="22.56" width="4.18" height="1.83"/><g class="cls-2"><path class="cls-4" d="M16.61,8A6.39,6.39,0,0,1,16,10.7,6.31,6.31,0,0,1,15.36,8,6.29,6.29,0,0,1,16,5.39,6.37,6.37,0,0,1,16.61,8" transform="translate(0 0)"/><path class="cls-4" d="M17.23,9A4.33,4.33,0,0,1,16,10.7a5.23,5.23,0,0,1,.34-2.19,4.33,4.33,0,0,1,1.24-1.66A5.23,5.23,0,0,1,17.23,9" transform="translate(0 0)"/><path class="cls-4" d="M17.73,9.9a3.38,3.38,0,0,1-1.74.8,4.65,4.65,0,0,1,1.14-1.76,3.43,3.43,0,0,1,1.75-.79A4.52,4.52,0,0,1,17.73,9.9" transform="translate(0 0)"/><path class="cls-4" d="M17.38,10.78A2.45,2.45,0,0,1,16,10.7a2.75,2.75,0,0,1,1.23-.8,2.4,2.4,0,0,1,1.39.09,2.77,2.77,0,0,1-1.23.79" transform="translate(0 0)"/><path class="cls-4" d="M15,9a4.33,4.33,0,0,0,1.24,1.66,5.23,5.23,0,0,0-.34-2.19,4.33,4.33,0,0,0-1.24-1.66A5.23,5.23,0,0,0,15,9" transform="translate(0 0)"/><path class="cls-4" d="M14.47,9.9a3.38,3.38,0,0,0,1.74.8,4.51,4.51,0,0,0-1.14-1.76,3.43,3.43,0,0,0-1.75-.79A4.52,4.52,0,0,0,14.47,9.9" transform="translate(0 0)"/><path class="cls-4" d="M14.82,10.78a2.45,2.45,0,0,0,1.39-.08A2.75,2.75,0,0,0,15,9.9a2.4,2.4,0,0,0-1.39.09,2.77,2.77,0,0,0,1.23.79" transform="translate(0 0)"/></g></svg>