<svg xmlns="http://www.w3.org/2000/svg" viewBox="0 0 642.47 234.63"><defs><style>.cls-1,.cls-10,.cls-15,.cls-16,.cls-17,.cls-18,.cls-19,.cls-23,.cls-9{fill:none}.cls-14,.cls-2,.cls-3{fill:#fff}.cls-3{font-size:8px}.cls-14,.cls-3{font-family:AGBookPro-Medium,AG Book Pro}.cls-7{letter-spacing:-.03em}.cls-8{clip-path:url(#clip-path)}.cls-10,.cls-15,.cls-16,.cls-17,.cls-18,.cls-19,.cls-23,.cls-9{stroke:#fff}.cls-10,.cls-15,.cls-16,.cls-17,.cls-23,.cls-9{stroke-miterlimit:10}.cls-9{stroke-width:.5px}.cls-10,.cls-17,.cls-18{stroke-width:1.5px}.cls-14{font-size:12.64px}.cls-15{stroke-width:2px}.cls-16,.cls-17,.cls-18,.cls-19{stroke-linecap:round}.cls-18,.cls-19{stroke-linejoin:round}.cls-19{stroke-width:.75px}.cls-23{stroke-width:.03px}</style><clipPath id="clip-path"><path class="cls-1" d="M0 0h642.47v234.63H0z"/></clipPath></defs><g id="Layer_2" data-name="Layer 2"><g id="Layer_1-2" data-name="Layer 1"><path class="cls-1" d="M0 0h642.47v234.63H0z"/><path class="cls-2" d="M98.83 114a10.64 10.64 0 1 0 10.63 10.63A10.63 10.63 0 0 0 98.83 114zm-1.5 13.44H95.8l-1.44-7h1.47l.8 4.77.76-4.77h1.48zm3.65.11a1.71 1.71 0 0 1-1.9-1.93v-.5h1.37v.64c0 .39.15.72.59.72s.62-.31.62-.77c0-.67-.2-.81-.74-1.17l-.64-.42a2.09 2.09 0 0 1-1.13-1.91 1.69 1.69 0 0 1 1.91-1.84c1.46 0 1.83.77 1.83 1.93v.19h-1.33v-.3c0-.37-.06-.79-.53-.79s-.55.27-.55.65.21.62.64.94l.7.5a2.21 2.21 0 0 1 1.26 2c0 1.32-.67 2.02-2.08 2.02z"/><text class="cls-3" transform="translate(310.6 223.1)">Middleman Costs</text><text class="cls-3" transform="translate(82.58 223.1)">Cont<tspan x="17.66" y="0" letter-spacing="-.02em">r</tspan><tspan x="20.31" y="0">act Manu</tspan><tspan x="54.46" y="0" letter-spacing="-.03em">f</tspan><tspan x="57.04" y="0">actu</tspan><tspan x="73.2" y="0" letter-spacing="-.01em">r</tspan><tspan x="75.95" y="0">er</tspan></text><text class="cls-3" transform="translate(96.83 89.7)">Our Manu<tspan class="cls-7" x="35.98" y="0">f</tspan><tspan x="38.56" y="0">acturing</tspan></text><g class="cls-8"><path class="cls-9" d="M540.17 57.75h34.66"/><path class="cls-2" d="M573.17 59.79l-.34-.37 1.8-1.67-1.8-1.68.34-.37 2.2 2.05-2.2 2.04z"/><path class="cls-9" d="M455.26 194.72h28.08"/><path class="cls-2" d="M481.69 196.77l-.35-.37 1.81-1.68-1.81-1.68.35-.36 2.19 2.04-2.19 2.05z"/><path class="cls-9" d="M168.57 194.72h28.08"/><path class="cls-2" d="M194.99 196.77l-.34-.37 1.81-1.68-1.81-1.68.34-.36 2.2 2.04-2.2 2.05z"/><path class="cls-9" d="M65.74 96.24l9.74-9.73"/><path class="cls-2" d="M75.75 89.13l-.5-.02.09-2.47-2.46.09-.02-.5 3-.1-.11 3z"/><path class="cls-9" d="M65.74 165.13l9.74 9.73"/><path class="cls-2" d="M72.86 175.13l.02-.5 2.46.09-.09-2.46.5-.02.11 3-3-.11z"/><path class="cls-9" d="M272.13 194.72h28.08"/><path class="cls-2" d="M298.55 196.77l-.34-.37 1.81-1.68-1.81-1.68.34-.36 2.2 2.04-2.2 2.05z"/><path class="cls-9" d="M380.58 194.72h28.08"/><path class="cls-2" d="M407 196.77l-.34-.37 1.81-1.68-1.81-1.68.34-.36 2.2 2.04-2.2 2.05z"/><path class="cls-9" d="M540.17 194.72h30.08"/><path class="cls-2" d="M568.59 196.77l-.34-.37 1.8-1.68-1.8-1.68.34-.36 2.2 2.04-2.2 2.05z"/><path class="cls-9" d="M483.34 57.75H178.19"/><path class="cls-2" d="M481.69 55.7l-.35.37 1.81 1.68-1.81 1.67.35.37 2.19-2.04-2.19-2.05z"/></g><text class="cls-3" transform="translate(498.76 222.49)">Retailer</text><g class="cls-8"><path class="cls-10" d="M499.47 164.68h28.83v39.27h-28.83z"/><path class="cls-2" d="M501.95 180.12h4.18v1.83h-4.18zM508.54 180.12h4.18v1.83h-4.18zM515.13 180.12h4.18v1.83h-4.18zM521.72 180.12h4.18v1.83h-4.18zM501.95 184.75h4.18v1.83h-4.18zM508.54 184.75h4.18v1.83h-4.18zM515.13 184.75h4.18v1.83h-4.18zM521.72 184.75h4.18v1.83h-4.18zM501.95 189.38h4.18v1.83h-4.18zM508.54 189.38h4.18v1.83h-4.18zM515.13 189.38h4.18v1.83h-4.18zM521.72 189.38h4.18v1.83h-4.18z"/><path class="cls-10" d="M497.79 175.2h32.74M505.21 195.57h6.67v8.38h-6.67z"/><path class="cls-2" d="M514.61 169.86a5 5 0 0 1-.89 2.66 4.45 4.45 0 0 1 0-5.31 5 5 0 0 1 .89 2.65"/><path class="cls-2" d="M515.5 170.86a5 5 0 0 1-1.78 1.66 3.9 3.9 0 0 1 .49-2.19 5 5 0 0 1 1.77-1.65 3.82 3.82 0 0 1-.48 2.18"/><path class="cls-2" d="M516.21 171.72a6.08 6.08 0 0 1-2.49.8 4.64 4.64 0 0 1 1.64-1.75 6.08 6.08 0 0 1 2.49-.8 4.64 4.64 0 0 1-1.64 1.75"/><path class="cls-2" d="M515.72 172.6a5 5 0 0 1-2-.08 4.19 4.19 0 0 1 1.76-.79 4.73 4.73 0 0 1 2 .08 4.34 4.34 0 0 1-1.75.79"/><path class="cls-2" d="M512.28 170.86a5 5 0 0 0 1.77 1.66 3.8 3.8 0 0 0-.49-2.19 4.89 4.89 0 0 0-1.77-1.65 3.87 3.87 0 0 0 .49 2.18"/><path class="cls-2" d="M511.57 171.72a6 6 0 0 0 2.48.8 4.64 4.64 0 0 0-1.64-1.75 6 6 0 0 0-2.48-.8 4.64 4.64 0 0 0 1.64 1.75"/><path class="cls-2" d="M512.06 172.6a4.93 4.93 0 0 0 2-.08 4.19 4.19 0 0 0-1.75-.79 4.71 4.71 0 0 0-2 .08 4.34 4.34 0 0 0 1.75.79"/></g><text class="cls-3" transform="translate(499.72 89.69)">Retailer</text><g class="cls-8"><text class="cls-3" transform="translate(579.34 89.69)">Hap<tspan x="14.66" y="0" letter-spacing="-.02em">p</tspan><tspan x="19.15" y="0">y Consumer</tspan></text><path class="cls-10" d="M499.43 27.88h28.83v39.27h-28.83z"/><path class="cls-2" d="M501.91 43.32h4.18v1.83h-4.18zM508.5 43.32h4.18v1.83h-4.18zM515.09 43.32h4.18v1.83h-4.18zM521.68 43.32h4.18v1.83h-4.18zM501.91 47.95h4.18v1.83h-4.18zM508.5 47.95h4.18v1.83h-4.18zM515.09 47.95h4.18v1.83h-4.18zM521.68 47.95h4.18v1.83h-4.18zM501.91 52.58h4.18v1.83h-4.18zM508.5 52.58h4.18v1.83h-4.18zM515.09 52.58h4.18v1.83h-4.18zM521.68 52.58h4.18v1.83h-4.18z"/><path class="cls-10" d="M497.75 38.4h32.74M505.17 58.77h6.67v8.38h-6.67z"/><path class="cls-2" d="M514.57 32.76a5 5 0 0 1-.89 2.65 5 5 0 0 1-.88-2.65 5 5 0 0 1 .88-2.66 5 5 0 0 1 .89 2.66"/><path class="cls-2" d="M515.46 33.75a5 5 0 0 1-1.78 1.66 3.87 3.87 0 0 1 .49-2.18 5.05 5.05 0 0 1 1.77-1.66 3.82 3.82 0 0 1-.48 2.18"/><path class="cls-2" d="M516.17 34.62a6.15 6.15 0 0 1-2.49.79 4.64 4.64 0 0 1 1.64-1.75 6.15 6.15 0 0 1 2.49-.79 4.64 4.64 0 0 1-1.64 1.75"/><path class="cls-2" d="M515.68 35.49a4.77 4.77 0 0 1-2-.08 4.34 4.34 0 0 1 1.76-.79 4.73 4.73 0 0 1 2 .08 4.19 4.19 0 0 1-1.75.79"/><path class="cls-2" d="M512.24 33.75a5 5 0 0 0 1.76 1.66 3.78 3.78 0 0 0-.49-2.18 5 5 0 0 0-1.77-1.66 3.87 3.87 0 0 0 .49 2.18"/><path class="cls-2" d="M511.53 34.62a6.09 6.09 0 0 0 2.48.79 4.64 4.64 0 0 0-1.64-1.75 6.09 6.09 0 0 0-2.48-.79 4.64 4.64 0 0 0 1.64 1.75"/><path class="cls-2" d="M512 35.49a4.73 4.73 0 0 0 2-.08 4.34 4.34 0 0 0-1.75-.79 4.71 4.71 0 0 0-2 .08 4.19 4.19 0 0 0 1.75.79"/></g><text class="cls-3" transform="translate(580.34 222.49)">Consumer p<tspan x="44.65" y="0" letter-spacing="-.01em">ay</tspan><tspan x="52.97" y="0">s</tspan></text><g class="cls-8"><text class="cls-3" transform="translate(591.96 232.49)"><tspan class="cls-7">f</tspan><tspan x="2.58" y="0">or Costs</tspan></text></g><text class="cls-3" transform="translate(404.95 222.49)">Mar<tspan x="13.99" y="0" letter-spacing="-.01em">k</tspan><tspan x="18.25" y="0">eting Costs</tspan></text><text class="cls-14" transform="translate(432.71 191.82)">$</text><text class="cls-14" transform="translate(426.06 198.09)">$</text><text class="cls-14" transform="translate(439.53 185.66)">$</text><g class="cls-8"><path class="cls-10" d="M431.15 206.11l-13.52-14.19a.66.66 0 0 1 0-.91l22.75-21.68a.65.65 0 0 1 .51-.17l12.21 1.9a.66.66 0 0 1 .58.61L455 184a.65.65 0 0 1-.2.51l-22.75 21.67a.64.64 0 0 1-.9-.07z"/><path class="cls-10" d="M447.61 174.94a1.41 1.41 0 1 1-.05 2 1.41 1.41 0 0 1 .05-2z"/><path class="cls-2" d="M112.63 9.4a2.43 2.43 0 0 0-1.57-2.32 2.08 2.08 0 0 0 1.33-2c0-1.83-1.42-2.49-3.26-2.49h-3.94v9.65h4.1c1.42 0 3.34-.55 3.34-2.84m-5.28-5h1.46c.61 0 1.43.09 1.43 1s-.79.91-1.53.91h-1.36zm0 6.07V8.05h1.55c.63 0 1.53.12 1.53 1.18 0 .88-.64 1.24-1.77 1.24zm27.21 2a2.21 2.21 0 0 0 1.8-.75v.52h2V2.59h-2v3a2.63 2.63 0 0 0-1.7-.59c-2.15 0-3.11 1.86-3.11 3.79s1 3.65 3 3.65M135 6.8c1.17 0 1.4 1 1.4 2s-.24 1.88-1.38 1.88-1.45-1-1.45-2 .35-1.9 1.43-1.9m7.41 5.65a3.37 3.37 0 0 0 3.41-2.26l-2-.13a1.37 1.37 0 0 1-1.33.75 1.53 1.53 0 0 1-1.49-1.5h5V9c0-2.19-1.12-4-3.49-4a3.51 3.51 0 0 0-3.58 3.74 3.45 3.45 0 0 0 3.58 3.75m.06-5.91a1.29 1.29 0 0 1 1.31 1.22H141a1.42 1.42 0 0 1 1.52-1.22M102.25 15h53.86V0h-53.86zm1-13.72a.2.2 0 0 1 .2-.2h51.38a.2.2 0 0 1 .21.2v12.44a.2.2 0 0 1-.21.2h-51.34a.2.2 0 0 1-.2-.2zm12 7.53c0-.85.16-1.92 1.61-1.92a4.05 4.05 0 0 1 .48 0V5.05h-.35a1.77 1.77 0 0 0-1.79 1.09v-1h-2v7.08h2.06zm11.45-.41c0-.75.26-1.6 1.21-1.6.8 0 1.06.67 1.06 1.35v4.14h2.06V7.92a2.78 2.78 0 0 0-.94-2.43 2.42 2.42 0 0 0-1.42-.49 2.39 2.39 0 0 0-1.93.94v-.75h-2v7.05h2zm-5.85-.59l-1 .14c-1.33.19-2.53.72-2.53 2.26a2.27 2.27 0 0 0 2.47 2.29 3.27 3.27 0 0 0 2.15-.8v.57h2V7.62c0-2.1-1.29-2.66-3.21-2.66-.66 0-2.9.09-3 2.44h1.85c0-.61.51-.88 1.25-.88.33 0 1.08.06 1.08.65s-.49.51-1.1.59m1.15 1.09v.75a1 1 0 0 1-.31.75 2 2 0 0 1-1.34.51c-.41 0-.94-.18-.94-.76 0-.92 1.54-.93 2.1-1.08a3.58 3.58 0 0 0 .49-.17m27.27 3.6a2.17 2.17 0 0 0 1.79-.74h.05v.51h2V2.59h-2v3a2.58 2.58 0 0 0-1.63-.59c-2.15 0-3.12 1.86-3.12 3.79s1 3.65 3 3.65m.45-5.65c1.18 0 1.41 1 1.41 2s-.25 1.88-1.38 1.88-1.45-1-1.45-2 .34-1.9 1.42-1.9m7-6.45h.5V1.8h.37V.35h.49V0h-1.36zm3-.35l-.47 1.2-.46-1.17h-.4v1.8h.36v-1l.37 1h.27l.37-1v1h.37V0z"/><path class="cls-15" d="M163.37 24.79v45.08H97.68V24.79"/><path class="cls-2" d="M100.83 37.92h5.3v2.32h-5.3zM109.19 37.92h5.3v2.32h-5.3zM117.55 37.92h5.3v2.32h-5.3zM125.91 37.92h5.3v2.32h-5.3zM100.83 43.79h5.3v2.32h-5.3zM109.19 43.79h5.3v2.32h-5.3zM117.55 43.79h5.3v2.32h-5.3zM125.91 43.79h5.3v2.32h-5.3zM138.15 37.92h5.3v2.32h-5.3zM146.51 37.92h5.3v2.32h-5.3zM154.87 37.92h5.3v2.32h-5.3zM138.15 43.79h5.3v2.32h-5.3zM146.51 43.79h5.3v2.32h-5.3zM154.87 43.79h5.3v2.32h-5.3zM138.15 49.67h5.3v2.32h-5.3zM146.51 49.67h5.3v2.32h-5.3zM154.87 49.67h5.3v2.32h-5.3zM100.83 49.67h5.3v2.32h-5.3zM109.19 49.67h5.3v2.32h-5.3zM117.55 49.67h5.3v2.32h-5.3zM125.91 49.67h5.3v2.32h-5.3z"/><path class="cls-15" d="M95.54 24.79h70.1M117.55 24.44v-8.2M140.97 24.44v-8.2M134.26 24.79v31.08M124.74 56.71h19.06v13.15h-19.06zM94.76 167.86v37.07H149.45v-37.07"/><path class="cls-2" d="M141 172.98h5.3v2.32H141zM132.64 172.98h5.3v2.32h-5.3zM124.28 172.98h5.3v2.32h-5.3zM115.92 172.98h5.3v2.32h-5.3zM141 178.86h5.3v2.32H141zM124.28 178.86h5.3v2.32h-5.3zM106.68 172.98h5.3v2.32h-5.3zM98.32 172.98h5.3v2.32h-5.3zM106.68 178.86h5.3v2.32h-5.3zM106.68 184.73h5.3v2.32h-5.3zM98.32 184.73h5.3v2.32h-5.3zM141 184.73h5.3v2.32H141zM132.64 184.73h5.3v2.32h-5.3zM124.28 184.73h5.3v2.32h-5.3zM115.92 184.73h5.3v2.32h-5.3z"/><path class="cls-15" d="M151.59 167.86h-59.1M135.29 191.78h9.53v7.28h-9.53zM118.57 191.78h9.53v7.28h-9.53zM100.97 191.78h9.53v7.28h-9.53zM144.82 167.86l-9.38-9.38v9.38M128.02 167.86l-9.38-9.38v9.38M110.43 167.86l-9.39-9.38v9.38M144.82 204.93h10.03v-49.2h-10.03v12.13M147.55 142.14A4.25 4.25 0 0 1 152 148a13.83 13.83 0 0 1-1.75 2.63 5 5 0 0 0-.93 2.93"/><path class="cls-16" d="M614.25 62.09a6.42 6.42 0 0 1-7.55 4.24"/><path class="cls-2" d="M604.23 53.53c0 1.26-.6 2.27-1.33 2.27s-1.34-1-1.34-2.27.6-2.27 1.34-2.27 1.33 1 1.33 2.27M612.73 53.53c0 1.26-.59 2.27-1.33 2.27s-1.33-1-1.33-2.27.59-2.27 1.33-2.27 1.33 1 1.33 2.27"/><path class="cls-16" d="M607.63 55l-.72 4a1.72 1.72 0 0 0 0 .78 1.2 1.2 0 0 0 1.18.77 3.52 3.52 0 0 0 1.44-.42"/><path class="cls-17" d="M595.77 51.56a1.25 1.25 0 0 0-1.76-.13 2 2 0 0 0-.6 1.81 5.81 5.81 0 0 0 .66 1.87 3.28 3.28 0 0 0 1 1.41 1.16 1.16 0 0 0 1.58-.22"/><path class="cls-17" d="M621.12 56.37a1.15 1.15 0 0 0 1.58.22 3.38 3.38 0 0 0 1-1.41 6.09 6.09 0 0 0 .66-1.86 2 2 0 0 0-.61-1.81 1.37 1.37 0 0 0-1.7 0c.46-1.3 1-2.58 1.56-3.87a6.57 6.57 0 0 0 .33-5.41 4.73 4.73 0 0 0-4.37-2.93 33 33 0 0 0-4.36-4.64 10.4 10.4 0 0 0-5.38-2.66 11.43 11.43 0 0 0-6.68 1.5c-2 1.08-3.91 2.49-5.89 3.68 1.26.57 4.44 1.16 4 1.67a26.08 26.08 0 0 1-7.76 6.58c1.64 1.43 4.07 1.58 6.2 1.11a65.11 65.11 0 0 0 6.14-2.2A21 21 0 0 1 618 44a3.86 3.86 0 0 0 .41 2.77c.31.62.7 1.21 1 1.83a4.92 4.92 0 0 1 .74 1.81v1.08l.49 1.51v6.8a7.21 7.21 0 0 1-1.9 4.87l-6.24 6.8a5.53 5.53 0 0 1-8.26-.13l-5.8-6.71a7.2 7.2 0 0 1-1.75-4.7V47.28"/><path class="cls-16" d="M605.61 201.31a6.42 6.42 0 0 1 5.86-2.4 6.5 6.5 0 0 1 2.69 1"/><path class="cls-2" d="M605.2 187c-.35 0-.88.5-1.25.61-.6.18-1-.08-1 .69 0 1.25.6 2.27 1.33 2.27s1.34-1 1.34-2.27a3.23 3.23 0 0 0-.16-1.07.31.31 0 0 0-.25-.23"/><path class="cls-16" d="M609 189.75l-.73 4a1.92 1.92 0 0 0 0 .79 1.2 1.2 0 0 0 1.18.77 3.56 3.56 0 0 0 1.44-.42"/><path class="cls-17" d="M597.15 186.33a1.25 1.25 0 0 0-1.76-.13 2.07 2.07 0 0 0-.61 1.81 5.93 5.93 0 0 0 .67 1.86 3.25 3.25 0 0 0 1 1.42 1.16 1.16 0 0 0 1.58-.22"/><path class="cls-17" d="M622.5 191.14a1.16 1.16 0 0 0 1.58.22 3.28 3.28 0 0 0 1-1.41 5.81 5.81 0 0 0 .66-1.87 2 2 0 0 0-.6-1.8 1.38 1.38 0 0 0-1.71 0c.47-1.31 1-2.58 1.56-3.87a6.53 6.53 0 0 0 .33-5.41 4.7 4.7 0 0 0-4.36-2.93 34.26 34.26 0 0 0-4.36-4.65 10.54 10.54 0 0 0-5.44-2.69 11.48 11.48 0 0 0-6.67 1.51c-2 1.08-3.91 2.49-5.89 3.68 1.26.57 4.44 1.16 4 1.67a26 26 0 0 1-7.75 6.58c1.64 1.43 4.07 1.58 6.19 1.1a62.59 62.59 0 0 0 6.15-2.2 20.8 20.8 0 0 1 7.55-1.05 20.31 20.31 0 0 1 3.8.51c.19 0 .64.06.73.24s-.08.69-.08.87a4.52 4.52 0 0 0 .51 1.83c.32.63.7 1.22 1 1.84a4.85 4.85 0 0 1 .74 1.81v1.08l.48 1.5v6.86a7.16 7.16 0 0 1-1.89 4.86l-6.25 6.81a5.53 5.53 0 0 1-8.26-.13l-5.79-6.71a7.21 7.21 0 0 1-1.75-4.71V182"/><path class="cls-2" d="M612 187c.35 0 .88.5 1.24.61.61.18 1-.08 1 .69 0 1.25-.6 2.27-1.34 2.27s-1.33-1-1.33-2.27a3.23 3.23 0 0 1 .16-1.07.31.31 0 0 1 .27-.23"/></g><text class="cls-3" transform="translate(201 223.1)">Supply Chain Costs</text><g class="cls-8"><path class="cls-1" d="M250.61 195.11a4.1 4.1 0 0 0-4 3.37 3.55 3.55 0 0 0-.08.73 3.67 3.67 0 0 0 .08.75h8a3.51 3.51 0 0 0 0-1.49 4.09 4.09 0 0 0-4-3.36zM220.52 198.51a4.05 4.05 0 0 0-.07.7 3.67 3.67 0 0 0 .08.75h8a4.54 4.54 0 0 0 .07-.75 4.17 4.17 0 0 0-.07-.71zM244.72 191.71h-28.21v3.17H221a5.58 5.58 0 0 1 7.38.26v-.26h18.49v.18a5.56 5.56 0 0 1 7.28-.18h5.78v-5.29l-6.26-7.22h-7.47v7.88a1.45 1.45 0 0 1-1.48 1.46zM228.3 178c0 .48.44.71.9.86v-1.73c-.52 0-.9.28-.9.87z"/><path class="cls-1" d="M224.55 195.11a4.1 4.1 0 0 0-4 3.4h8a4.1 4.1 0 0 0-4-3.4zM230.18 181v1.81c.47-.11.89-.38.89-.9s-.42-.78-.89-.91z"/><path class="cls-1" d="M244.66 170.24l-30.13.06.06 20 30.07-.06zm-14.48 14.1v1.17h-1v-1.17a2.76 2.76 0 0 1-2.79-2.8h1.72v.13a1.12 1.12 0 0 0 1.07 1.11v-2.15c-1.13-.33-2.6-.81-2.6-2.54 0-1.57 1.08-2.34 2.6-2.48v-1.2h1v1.2a2.46 2.46 0 0 1 2.41 2.56l-1.61.07a1 1 0 0 0-.8-1.11v2c1.41.41 2.65.89 2.65 2.59a2.57 2.57 0 0 1-2.65 2.62zM216.51 198.52H219a5.4 5.4 0 0 1 .73-2.13h-3.22zM256.15 198.47H260v-2.08h-4.5a5.53 5.53 0 0 1 .65 2.08zM230.09 198.5h15a5.58 5.58 0 0 1 .72-2.1h-16.44a5.5 5.5 0 0 1 .72 2.1zM250.61 203.31a4.1 4.1 0 0 0 4-3.35h-8a4.1 4.1 0 0 0 4 3.35zM224.55 203.31a4.11 4.11 0 0 0 4-3.35h-8a4.09 4.09 0 0 0 4 3.35z"/><path class="cls-2" d="M216.51 191v.75h28.21a1.45 1.45 0 0 0 1.44-1.44v-7.88h-.75v-1.5h.75v-10.69a1.44 1.44 0 0 0-1.44-1.44h-30.19a1.44 1.44 0 0 0-1.44 1.44v20a1.45 1.45 0 0 0 1.44 1.44h.47V191zm-1.92-.69l-.06-20 30.13-.06v20zM245.07 198.48h-15a5.52 5.52 0 0 1 0 .71 6.16 6.16 0 0 1 0 .75h15a6.15 6.15 0 0 1-.06-.75 5.83 5.83 0 0 1 .06-.71z"/><path class="cls-2" d="M261 188.65l-6.28-7.26a1.42 1.42 0 0 0-1.09-.5h-8.26v1.5H253.59l6.26 7.22v5.29h.71v1.5h-.71v2.08h-3.8a4.52 4.52 0 0 1 .06.74 4.65 4.65 0 0 1-.06.75H260a1.45 1.45 0 0 0 1.44-1.44v-8.93a1.44 1.44 0 0 0-.44-.95zM219 198.51h-2.49v-2.14h-.75v-1.5h.75V191H215v7.56a1.45 1.45 0 0 0 1.45 1.44H219a4.65 4.65 0 0 1-.06-.75 5.36 5.36 0 0 1 .06-.74z"/><path class="cls-2" d="M230.09 198.5a5.5 5.5 0 0 0-.72-2.12h-1v-1.24a5.58 5.58 0 0 0-7.38-.26h.29v1.5h-1.56a5.73 5.73 0 0 0-.78 2.83 4.65 4.65 0 0 0 .06.75 5.59 5.59 0 0 0 11.08 0 6.16 6.16 0 0 0 0-.75 5.52 5.52 0 0 0 .01-.71zm-1.52 1.5a4.09 4.09 0 0 1-8 0 3.67 3.67 0 0 1-.08-.75 4.05 4.05 0 0 1 .07-.7 4.08 4.08 0 0 1 8 0 4.17 4.17 0 0 1 .07.71 4.54 4.54 0 0 1-.06.74zM256.15 198.47a5.53 5.53 0 0 0-.72-2.09h-1.56v-1.5h.28a5.56 5.56 0 0 0-7.28.18v1.32h-1.08a5.58 5.58 0 0 0-.72 2.1 5.83 5.83 0 0 0-.06.73 6.15 6.15 0 0 0 .06.75 5.59 5.59 0 0 0 11.08 0 4.65 4.65 0 0 0 .06-.75 4.52 4.52 0 0 0-.06-.74zm-1.52 1.53a4.09 4.09 0 0 1-8 0 3.67 3.67 0 0 1-.08-.75 3.55 3.55 0 0 1 .08-.73 4.08 4.08 0 0 1 8 0 3.51 3.51 0 0 1 0 1.49zM230.18 179.1v-2a1 1 0 0 1 .8 1.11l1.61-.07a2.46 2.46 0 0 0-2.41-2.56v-1.2h-1v1.2c-1.52.14-2.6.91-2.6 2.48 0 1.73 1.47 2.21 2.6 2.54v2.15a1.12 1.12 0 0 1-1.07-1.11v-.13h-1.72a2.76 2.76 0 0 0 2.79 2.8v1.17h1v-1.17a2.57 2.57 0 0 0 2.65-2.65c0-1.66-1.24-2.15-2.65-2.56zm-1-.29c-.46-.15-.9-.38-.9-.86s.38-.82.9-.87zm1 4V181c.47.16.89.33.89.91s-.42.76-.89.87z"/><path class="cls-2" d="M215.76 194.88v1.5h5.53v-1.5h-5.53zM228.38 194.88v1.5H246.87v-1.5h-18.49zM253.87 194.88v1.5H260.64v-1.5H253.87z"/><path class="cls-18" d="M313.78 180.78h3.51l7.2-6a2.78 2.78 0 0 1 2-.81h5.9a2.78 2.78 0 0 1 2.72 2.19l1.86 8.52a.27.27 0 0 1-.25.34c-1.06.07-4.54-.11-7.66-5.1 0 0 1 8.32-6.09 9M313.78 196.77h3.59l4.03 1.67h8.11"/><rect class="cls-18" x="328.26" y="193.6" width="9.17" height="5.23" rx="2.45" ry="2.45"/><path class="cls-18" d="M345.55 187.62h-2.39a2.62 2.62 0 0 1-2.62-2.61v-.44a2.63 2.63 0 0 1 2.62-2.62h1.62"/><path class="cls-18" d="M345.47 182h-1.63a2.61 2.61 0 0 1-2.61-2.61V179a2.62 2.62 0 0 1 2.61-2.62h9.36M344.1 187.62a2.63 2.63 0 0 0-2.62 2.62v.76a2.63 2.63 0 0 0 2.62 2.61h2.5M336.38 193.6h-5.1a2.62 2.62 0 1 1 0-5.23h5.1a2.62 2.62 0 0 1 0 5.23z"/><path class="cls-18" d="M336.63 182.88a2.76 2.76 0 0 1-.25 5.49h-5.1a2.7 2.7 0 0 1-2.62-2.75 2.86 2.86 0 0 1 2.81-2.76M335.38 177.35h1.1a2.78 2.78 0 0 1 .15 5.51M367.23 197h-4.73l-4.11 2h-13a2.62 2.62 0 0 1-2.62-2.61v-.19a2.63 2.63 0 0 1 2.62-2.62M344.62 176.37l1.51-1.64a2.75 2.75 0 0 1 2.05-.9h4.69a5.52 5.52 0 0 1 3.85 1.55l6.23 5.2h4.28"/><path class="cls-2" d="M370.05 185.66a3.16 3.16 0 1 1-3.16 3.16 3.17 3.17 0 0 1 3.16-3.16m0-1a4.16 4.16 0 1 0 4.16 4.16 4.16 4.16 0 0 0-4.16-4.16"/><path class="cls-18" d="M372.87 182.42V179a.39.39 0 0 0-.39-.39h-4.85a.4.4 0 0 0-.4.39v3.46M367.23 195.1v3.45a.39.39 0 0 0 .4.39h4.85a.38.38 0 0 0 .39-.39v-3.45"/><path class="cls-18" d="M375.58 188.82a5.49 5.49 0 0 0-1.61-3.9v-2.5h-7.83v2.5a5.52 5.52 0 0 0 0 7.81v2.37H374v-2.37a5.5 5.5 0 0 0 1.58-3.91z"/><path class="cls-19" d="M370.05 188.82v-1.95M370.05 188.82h1.38M367.23 180.58h5.64M367.23 197.02h5.64"/><path class="cls-18" d="M308.14 195.1v3.06a.4.4 0 0 0 .39.4h4.86a.39.39 0 0 0 .39-.4V179a.39.39 0 0 0-.39-.39h-4.86a.4.4 0 0 0-.39.39v16.1zM308.14 179.5h5.64M308.14 182.42h5.64M308.14 194.58h5.64M308.14 197.47h5.64"/><path class="cls-18" d="M308.14 190.71v.68c0 .07.18.12.39.12h4.86c.22 0 .39 0 .39-.12v-5.65c0-.07-.17-.12-.39-.12h-4.86c-.21 0-.39 0-.39.12v5z"/><path class="cls-19" d="M312.29 185.87a1.33 1.33 0 0 1-2.66 0"/><text class="cls-3" transform="translate(0 152.99)">R<tspan x="5.17" y="0" letter-spacing="-.08em">A</tspan><tspan x="9.9" y="0">W M</tspan><tspan x="26.06" y="0" letter-spacing="-.09em">A</tspan><tspan x="30.7" y="0">TERIA</tspan><tspan x="52.86" y="0" letter-spacing="-.02em">L</tspan><tspan x="57.19" y="0">S</tspan></text><path class="cls-18" d="M3.39 114.71h55.85M30.87 114.71l-14.64 23.26M34.64 114.71l-10.02 23.26M38.41 114.71l-6.68 23.26M41.51 114.71l-2.94 23.26M45.17 114.71v23.26M59.24 119.46H48.39M59.24 124.67H48.39M59.24 130.88H48.39M59.24 137.97H48.39M12.58 137.97H3.73M16.68 130.88H3.73M20.12 124.67H3.73M23.55 119.69H3.73"/><path class="cls-2" d="M32 100a7 7 0 0 1-.63 2.82 7 7 0 0 1-.63-2.82 7.07 7.07 0 0 1 .63-2.83A7.07 7.07 0 0 1 32 100"/><path class="cls-23" d="M32 100a7 7 0 0 1-.63 2.82 7 7 0 0 1-.63-2.82 7.07 7.07 0 0 1 .63-2.83A7.07 7.07 0 0 1 32 100z"/><path class="cls-2" d="M33.15 101.1a6 6 0 0 1-1.81 1.76A5.75 5.75 0 0 1 34 98.74a6.12 6.12 0 0 1-.88 2.36"/><path class="cls-23" d="M33.15 101.1a6 6 0 0 1-1.81 1.76A5.75 5.75 0 0 1 34 98.74a6.12 6.12 0 0 1-.85 2.36z"/><path class="cls-2" d="M33.9 102.71a6.21 6.21 0 0 1-2.56.15 5.84 5.84 0 0 1 4.8-1.38 6.17 6.17 0 0 1-2.24 1.23"/><path class="cls-23" d="M33.9 102.71a6.21 6.21 0 0 1-2.56.15 5.84 5.84 0 0 1 4.8-1.38 6.17 6.17 0 0 1-2.24 1.23z"/><path class="cls-2" d="M32.58 103.86a3.86 3.86 0 0 1-1.24-1 3.91 3.91 0 0 1 1.55.38 3.75 3.75 0 0 1 1.23 1 3.88 3.88 0 0 1-1.54-.38"/><path class="cls-23" d="M32.58 103.86a3.86 3.86 0 0 1-1.24-1 3.91 3.91 0 0 1 1.55.38 3.75 3.75 0 0 1 1.23 1 3.88 3.88 0 0 1-1.54-.38z"/><path class="cls-2" d="M29.54 101.1a6.06 6.06 0 0 0 1.8 1.76 5.77 5.77 0 0 0-2.68-4.12 6.12 6.12 0 0 0 .88 2.36"/><path class="cls-23" d="M29.54 101.1a6.06 6.06 0 0 0 1.8 1.76 5.77 5.77 0 0 0-2.68-4.12 6.12 6.12 0 0 0 .88 2.36z"/><path class="cls-2" d="M28.79 102.71a6.17 6.17 0 0 0 2.55.15 5.82 5.82 0 0 0-4.8-1.38 6.15 6.15 0 0 0 2.25 1.23"/><path class="cls-23" d="M28.79 102.71a6.17 6.17 0 0 0 2.55.15 5.82 5.82 0 0 0-4.8-1.38 6.15 6.15 0 0 0 2.25 1.23z"/><path class="cls-2" d="M30.11 103.86a3.89 3.89 0 0 0 1.23-1 3.63 3.63 0 0 0-2.78 1.38 3.91 3.91 0 0 0 1.55-.38"/><path class="cls-23" d="M30.11 103.86a3.89 3.89 0 0 0 1.23-1 3.63 3.63 0 0 0-2.78 1.38 3.91 3.91 0 0 0 1.55-.38z"/><path class="cls-18" d="M42.93 114.47v-8.82a11.59 11.59 0 1 0-23.18 0v8.82"/><path class="cls-18" d="M26.54 114.48v-7.45h9.6v7.45M26.54 109.59h9.6M26.54 112.2h9.6"/></g></g></g></svg>