<svg xmlns="http://www.w3.org/2000/svg" id="Layer_1" data-name="Layer 1" viewBox="0 0 642.5 234.7"><defs><style>.cls-1,.cls-10,.cls-11,.cls-12,.cls-5,.cls-6,.cls-7,.cls-8,.cls-9{fill:none}.cls-2{fill:#fff}.cls-3{isolation:isolate}.cls-4{clip-path:url(#clip-path)}.cls-10,.cls-11,.cls-12,.cls-5,.cls-6,.cls-7,.cls-8,.cls-9{stroke:#fff}.cls-12,.cls-5,.cls-6,.cls-7,.cls-8,.cls-9{stroke-miterlimit:10}.cls-5{stroke-width:.5px}.cls-10,.cls-6,.cls-9{stroke-width:1.5px}.cls-7{stroke-width:2px}.cls-10,.cls-11,.cls-8,.cls-9{stroke-linecap:round}.cls-10,.cls-11{stroke-linejoin:round}.cls-11{stroke-width:.75px}.cls-12{stroke-width:.03px}</style><clipPath id="clip-path"><path d="M0 0h642.5v234.63H0z" class="cls-1"/></clipPath></defs><g id="Layer_2" data-name="Layer 2"><g id="Layer_1-2" data-name="Layer 1-2"><path d="M0 0h642.5v234.6H0z" class="cls-1"/><path d="M98.8 114a10.7 10.7 0 1 0 10.7 10.6A10.7 10.7 0 0 0 98.8 114zm-1.5 13.4h-1.5l-1.4-7h1.4l.8 4.8.8-4.8h1.5zm3.7.2a1.7 1.7 0 0 1-1.9-1.5v-1h1.4v.7c0 .4.1.7.5.7s.7-.3.7-.8-.2-.8-.8-1.2l-.6-.4a1.9 1.9 0 0 1-1.1-1.9 1.6 1.6 0 0 1 1.5-1.8c.1-.1.2 0 .4 0s1.8.7 1.8 1.9v.2h-1.3v-.3c0-.4-.1-.8-.6-.8s-.5.3-.5.7a1.2 1.2 0 0 0 .6.9l.7.5a2.2 2.2 0 0 1 1.3 2 1.8 1.8 0 0 1-2.1 2z" class="cls-2"/><g class="cls-3"><path d="M316.8 223.1h-1.2s0-2.7.1-4.1l-1.1 4.1h-1.3l-1.1-4.1v4.1h-1.1v-5.6h1.7l1.1 4.2 1.1-4.2h1.8zM318.8 218.5h-1.1v-1h1.1zm0 4.6h-1.1V219h1.1zM322.4 223.1v-.4a1.3 1.3 0 0 1-1.1.5 1.9 1.9 0 0 1-1.8-2.1c0-1.2.6-2.2 1.8-2.2a1.7 1.7 0 0 1 1 .3v-1.7h1.2v5.6zm-.9-3.3c-.6 0-.8.7-.8 1.2s.2 1.2.9 1.2.8-.6.8-1.1-.2-1.3-.9-1.3zM327 223.1v-.4c-.2.4-.6.5-1.1.5a1.9 1.9 0 0 1-1.7-2.1c0-1.2.5-2.2 1.8-2.2a1.7 1.7 0 0 1 1 .3v-1.7h1.2v5.6zm-.8-3.3c-.6 0-.8.7-.8 1.2s.1 1.2.8 1.2.8-.6.8-1.1-.1-1.3-.8-1.3zM330.2 223.1H329v-5.6h1.2zM332 221.4c.1.5.4.9.9.9a.9.9 0 0 0 .8-.5h1.2a2 2 0 0 1-2 1.3 2 2 0 0 1-2.1-2.2 2.1 2.1 0 0 1 2.1-2.2c1.4 0 2 1.1 2 2.4v.2zm1.7-.9a.8.8 0 0 0-.8-.7c-.5 0-.7.2-.9.7zM340.3 223.1v-2.2c0-.4 0-1-.6-1s-.6.6-.6 1v2.2h-1.2v-2.3c0-.4-.1-.9-.6-.9s-.7.6-.7 1v2.2h-1.1V219h1.1v.5a1.2 1.2 0 0 1 1.2-.6 1.1 1.1 0 0 1 1.1.7 1.2 1.2 0 0 1 1.2-.7 1.9 1.9 0 0 1 1 .3c.4.3.4.8.4 1.3v2.6zM344.9 222.7a1.9 1.9 0 0 1-1.3.5c-.8 0-1.5-.4-1.5-1.3s.7-1.2 1.5-1.3h.6c.3-.1.6-.1.6-.4s-.4-.4-.6-.4-.8.2-.8.6h-1a1.5 1.5 0 0 1 1.7-1.5c1.1 0 1.9.4 1.9 1.6v1.8a2.2 2.2 0 0 0 .1.9h-1.2zm-.1-1.6h-.3c-.3.1-1.2.1-1.2.6s.3.5.6.5a1 1 0 0 0 .9-.5zM349.3 223.1v-2.4c0-.4-.1-.8-.6-.8s-.7.5-.7.9v2.3h-1.2V219h1.2v.4a1.4 1.4 0 0 1 1.1-.5 1.5 1.5 0 0 1 .9.2 1.7 1.7 0 0 1 .5 1.5v2.5zM358.8 221.2a2.3 2.3 0 0 1-2.5 2 2.7 2.7 0 0 1-2.8-2.9 2.7 2.7 0 0 1 2.8-3 2.4 2.4 0 0 1 2.5 1.9h-1.3a1.2 1.2 0 0 0-1.2-.8c-1.1 0-1.4.9-1.4 1.8s.3 2 1.4 2a1.1 1.1 0 0 0 1.2-1.1zM361.2 223.2a2 2 0 0 1-2.1-2.1 2.1 2.1 0 0 1 2.2-2.3 2.1 2.1 0 0 1 2.1 2.2 2.1 2.1 0 0 1-2.2 2.2zm.1-3.4c-.8 0-1 .6-1 1.2s.2 1.3.9 1.3 1-.7 1-1.3-.3-1.2-.9-1.2zM364.9 221.6c0 .6.3.7.9.7s.5 0 .5-.4-2.4-.1-2.4-1.8.9-1.3 1.7-1.3 1.8.4 1.8 1.4h-1.1a.7.7 0 0 0-.7-.6c-.2 0-.6 0-.6.4s2.5.1 2.5 1.7-.9 1.4-1.8 1.4-1.9-.4-1.9-1.5h1.1zM369.6 219.9v1.8c0 .4.1.5.4.5h.4v.9h-.8c-1 0-1.2-.4-1.2-1.2v-2h-.6v-.9h.6v-1.3h1.2v1.3h.7v.9zM371.9 221.6c0 .6.3.7.9.7s.5 0 .5-.4-2.4-.1-2.4-1.8.9-1.3 1.7-1.3 1.8.4 1.8 1.4h-1.1a.7.7 0 0 0-.7-.6c-.2 0-.6 0-.6.4s2.5.1 2.5 1.7-.9 1.4-1.8 1.4-1.9-.4-1.9-1.5h1.1z" class="cls-2"/></g><g class="cls-3"><g class="cls-3"><path d="M88.2 221.2a2.4 2.4 0 0 1-2.6 2 2.7 2.7 0 0 1-2.8-2.9 2.8 2.8 0 0 1 2.9-3 2.3 2.3 0 0 1 2.4 1.9h-1.3a1 1 0 0 0-1.1-.8c-1.1 0-1.5.9-1.5 1.8s.3 2 1.5 2a1.3 1.3 0 0 0 1.2-1.1zM90.5 223.2a2 2 0 0 1-2.1-2.1 2.1 2.1 0 0 1 2.2-2.3 2.1 2.1 0 0 1 2.1 2.2 2.1 2.1 0 0 1-2.2 2.2zm.1-3.4c-.7 0-1 .6-1 1.2s.3 1.3 1 1.3.9-.7.9-1.3-.2-1.2-.9-1.2zM95.8 223.1v-2.4c0-.4-.1-.8-.6-.8s-.7.5-.7.9v2.3h-1.2V219h1.2v.4a1.4 1.4 0 0 1 1.1-.5 1.5 1.5 0 0 1 .9.2 1.7 1.7 0 0 1 .5 1.5v2.5zM99.3 219.9v1.8c0 .4 0 .5.4.5h.3v.9h-.8c-.9 0-1.1-.4-1.1-1.2v-2h-.6v-.9h.6v-1.3h1.2v1.3h.7v.9z" class="cls-2"/></g><g class="cls-3"><path d="M101.8 219.6a1.1 1.1 0 0 1 1.1-.7h.2v1.1h-.3c-.9 0-1 .7-1 1.2v2h-1.2V219h1.2z" class="cls-2"/></g><g class="cls-3"><path d="M105.8 222.7a1.7 1.7 0 0 1-1.3.5 1.3 1.3 0 0 1-1.4-1.3c0-.9.7-1.2 1.5-1.3h.5c.4-.1.7-.1.7-.4s-.5-.4-.7-.4-.7.2-.7.6h-1.1a1.6 1.6 0 0 1 1.8-1.5c1.1 0 1.9.4 1.9 1.6v1.8a2.2 2.2 0 0 0 .1.9h-1.2zm0-1.6h-.3c-.3.1-1.2.1-1.2.6a.5.5 0 0 0 .5.5 1.2 1.2 0 0 0 1-.5zM111.6 221.6a1.9 1.9 0 0 1-2 1.6 1.9 1.9 0 0 1-2-2.2 2 2 0 0 1 2.1-2.2 1.7 1.7 0 0 1 1.8 1.6h-1.1a.7.7 0 0 0-.7-.6c-.7 0-.9.6-.9 1.2s.2 1.2.8 1.2a.7.7 0 0 0 .8-.7zM113.6 219.9v1.8c0 .4 0 .5.4.5h.3v.9h-.8c-.9 0-1.1-.4-1.1-1.2v-2h-.6v-.9h.6v-1.3h1.2v1.3h.7v.9zM123.1 223.1h-1.2s0-2.7.1-4.1l-1.1 4.1h-1.3l-1.1-4.1v4.1h-1.2v-5.6h1.8l1.1 4.2 1.1-4.2h1.8zM126.5 222.7a1.7 1.7 0 0 1-1.3.5 1.2 1.2 0 0 1-1.4-1.3c0-.9.7-1.2 1.4-1.3h.6c.3-.1.6-.1.6-.4s-.4-.4-.6-.4-.7.2-.7.6H124a1.6 1.6 0 0 1 1.8-1.5c1.1 0 1.8.4 1.8 1.6v1.8a2 2 0 0 0 .2.9h-1.2zm0-1.6h-.3c-.4.1-1.3.1-1.3.6s.4.5.6.5a1.2 1.2 0 0 0 1-.5zM131 223.1v-2.4c0-.4-.2-.8-.6-.8a.8.8 0 0 0-.8.9v2.3h-1.1V219h1.1v.4a1.7 1.7 0 0 1 1.2-.5 1.1 1.1 0 0 1 .8.2 1.7 1.7 0 0 1 .6 1.5v2.5zM135.5 223.1v-.5a1.4 1.4 0 0 1-1.2.6c-1.3 0-1.4-1-1.4-1.8V219h1.2v2.3c0 .5.1.9.7.9s.7-.5.7-1.1V219h1.1v4.1z" class="cls-2"/></g><g class="cls-3"><path d="M138.9 219.9v3.2h-1.1v-3.2h-.6v-.9h.6c0-1.4.4-1.5 1.5-1.5h.4v.9h-.1c-.4 0-.7 0-.7.4v.2h.8v.9z" class="cls-2"/></g><g class="cls-3"><path d="M142.6 222.7a1.9 1.9 0 0 1-1.3.5c-.8 0-1.5-.4-1.5-1.3s.7-1.2 1.5-1.3h.6c.3-.1.6-.1.6-.4s-.4-.4-.6-.4-.8.2-.8.6h-1a1.5 1.5 0 0 1 1.7-1.5c1.1 0 1.9.4 1.9 1.6v1.8a2.2 2.2 0 0 0 .1.9h-1.2zm-.1-1.6h-.3c-.3.1-1.2.1-1.2.6s.3.5.6.5a1 1 0 0 0 .9-.5zM148.3 221.6a1.8 1.8 0 0 1-2 1.6 1.9 1.9 0 0 1-2-2.2 2 2 0 0 1 2.1-2.2 1.8 1.8 0 0 1 1.9 1.6h-1.2c0-.4-.3-.6-.7-.6s-.9.6-.9 1.2.2 1.2.9 1.2a.8.8 0 0 0 .8-.7zM150.3 219.9v1.8c0 .4.1.5.5.5h.3v.9h-.8c-1 0-1.2-.4-1.2-1.2v-2h-.6v-.9h.6v-1.3h1.2v1.3h.7v.9zM154.2 223.1v-.5a1.3 1.3 0 0 1-1.1.6c-1.3 0-1.4-1-1.4-1.8V219h1.2v2.3c0 .5 0 .9.6.9s.7-.5.7-1.1V219h1.2v4.1z" class="cls-2"/></g><g class="cls-3"><path d="M157.3 219.6a1.1 1.1 0 0 1 1.1-.7h.2v1.1h-.3c-.8 0-.9.7-.9 1.2v2h-1.2V219h1.1z" class="cls-2"/></g><g class="cls-3"><path d="M160 221.4a.8.8 0 0 0 .8.9.9.9 0 0 0 .8-.5h1.2a2 2 0 0 1-2 1.3 2 2 0 0 1-2.1-2.2 2.1 2.1 0 0 1 2.1-2.2 2.1 2.1 0 0 1 2.1 2.4v.2zm1.6-.9a.7.7 0 0 0-.8-.7c-.5 0-.7.2-.8.7zM164.6 219.6a1 1 0 0 1 1-.7h.2v1.1h-.2c-.9 0-1 .7-1 1.2v2h-1.2V219h1.2z" class="cls-2"/></g></g><g class="cls-3"><g class="cls-3"><path d="M99.9 89.8a3 3 0 1 1 2.8-2.9 2.7 2.7 0 0 1-2.8 2.9zm0-4.8c-1 0-1.5 1-1.5 1.9a1.6 1.6 0 0 0 1.5 1.8c1 0 1.5-.8 1.5-1.8S101 85 99.9 85zM105.9 89.7v-.5a1.3 1.3 0 0 1-1.1.6c-1.3 0-1.4-1-1.4-1.8v-2.4h1.2v2.3c0 .5.1.9.6.9s.7-.5.7-1.1v-2.1h1.2v4.1zM109 86.2a1.2 1.2 0 0 1 1.1-.7h.2v1.1h-.3c-.8 0-.9.7-.9 1.2v2h-1.2v-4.2h1.1zM118.9 89.7h-1.2v-4.1l-1.1 4.1h-1.2l-1.2-4.1c.1 1.6.1 4.1.1 4.1h-1.2v-5.6h1.8l1.1 4.2 1.1-4.2h1.8zM122.3 89.3a1.9 1.9 0 0 1-1.3.5c-.8 0-1.5-.4-1.5-1.3s.7-1.2 1.5-1.3h.6c.3-.1.6-.1.6-.4s-.4-.4-.6-.4-.8.2-.8.6h-1a1.5 1.5 0 0 1 1.7-1.5c1.2 0 1.9.4 1.9 1.6v1.8a2.2 2.2 0 0 0 .1.9h-1.2zm-.1-1.6h-.3c-.3.1-1.2.1-1.2.6s.3.5.6.5a1 1 0 0 0 .9-.5zM126.7 89.7v-2.4c0-.4-.1-.8-.6-.8s-.7.5-.7.9v2.3h-1.2v-4.1h1.2v.4a1.6 1.6 0 0 1 1.1-.5 1.3 1.3 0 0 1 .9.2 1.7 1.7 0 0 1 .6 1.5v2.5zM131.3 89.7v-.5a1.6 1.6 0 0 1-1.2.6c-1.3 0-1.4-1-1.4-1.8v-2.4h1.2v2.3c0 .5.1.9.6.9s.7-.5.7-1.1v-2.1h1.2v4.1z" class="cls-2"/></g><g class="cls-3"><path d="M134.7 86.5v3.2h-1.2v-3.2h-.6v-.9h.6c0-1.4.5-1.5 1.5-1.5h.5v.9h-.1c-.5 0-.7 0-.7.4v.2h.8v.9z" class="cls-2"/></g><g class="cls-3"><path d="M138.3 89.3a1.7 1.7 0 0 1-1.3.5 1.3 1.3 0 0 1-1.4-1.3c0-.9.7-1.2 1.5-1.3h.5c.4-.1.7-.1.7-.4s-.5-.4-.7-.4-.7.2-.7.6h-1.1a1.6 1.6 0 0 1 1.8-1.5c1.1 0 1.9.4 1.9 1.6v1.8a2.2 2.2 0 0 0 .1.9h-1.2zm0-1.6h-.3c-.3.1-1.2.1-1.2.6a.5.5 0 0 0 .5.5 1.2 1.2 0 0 0 1-.5zM144.1 88.2a1.9 1.9 0 0 1-2 1.6 1.9 1.9 0 0 1-2-2.2 2 2 0 0 1 2.1-2.2A1.7 1.7 0 0 1 144 87h-1.1a.7.7 0 0 0-.7-.6c-.7 0-.9.6-.9 1.2s.2 1.2.8 1.2a.7.7 0 0 0 .8-.7zM146.1 86.5v1.8c0 .4 0 .5.4.5h.3v.9h-.8c-.9 0-1.1-.4-1.1-1.2v-2h-.6v-.9h.6v-1.3h1.2v1.3h.7v.9zM150 89.7v-.5a1.3 1.3 0 0 1-1.2.6c-1.3 0-1.4-1-1.4-1.8v-2.4h1.2v2.3c0 .5.1.9.7.9s.7-.5.7-1.1v-2.1h1.1v4.1zM153.1 86.2a1.1 1.1 0 0 1 1.1-.7h.2v1.1h-.3c-.9 0-1 .7-1 1.2v2h-1.2v-4.2h1.2zM156 85.1h-1.2v-1h1.2zm0 4.6h-1.2v-4.1h1.2zM159.3 89.7v-2.4c0-.4-.1-.8-.6-.8s-.7.5-.7.9v2.3h-1.2v-4.1h1.1v.4a1.7 1.7 0 0 1 1.2-.5 1.5 1.5 0 0 1 .9.2 2 2 0 0 1 .5 1.5v2.5zM165.2 85.6v3.6a2.9 2.9 0 0 1-.2.9 1.8 1.8 0 0 1-1.9 1c-.9 0-1.7-.3-1.8-1.4h1.2a.8.8 0 0 0 .7.4c.7 0 .8-.4.8-1v-.2a1.2 1.2 0 0 1-1.1.5 1.8 1.8 0 0 1-1.8-1.9c0-1.1.6-2.1 1.7-2.1a1.4 1.4 0 0 1 1.2.7v-.5zm-2.1.8a.9.9 0 0 0-.8 1c0 .6.2 1 .8 1a1 1 0 0 0 0-2z" class="cls-2"/></g></g><g class="cls-4"><path d="M540.2 57.8h34.6" class="cls-5"/><path d="M573.2 59.8l-.4-.4 1.8-1.6-1.8-1.7.4-.4 2.2 2.1z" class="cls-2"/><path d="M455.3 194.7h28" class="cls-5"/><path d="M481.7 196.8l-.4-.4 1.8-1.7-1.8-1.7.4-.3 2.2 2-2.2 2.1z" class="cls-2"/><path d="M168.6 194.7h28.1" class="cls-5"/><path d="M195 196.8l-.3-.4 1.8-1.7-1.8-1.7.3-.3 2.2 2-2.2 2.1z" class="cls-2"/><path d="M65.7 96.2l9.8-9.7" class="cls-5"/><path d="M75.8 89.1h-.6v-2.5h-2.3v-.5h3z" class="cls-2"/><path d="M65.7 165.1l9.8 9.8" class="cls-5"/><path d="M72.9 175.1v-.5h2.4v-2.4h.6v3z" class="cls-2"/><path d="M272.1 194.7h28.1" class="cls-5"/><path d="M298.5 196.8l-.3-.4 1.8-1.7-1.8-1.7.3-.3 2.3 2-2.3 2.1z" class="cls-2"/><path d="M380.6 194.7h28.1" class="cls-5"/><path d="M407 196.8l-.3-.4 1.8-1.7-1.8-1.7.3-.3 2.2 2-2.2 2.1z" class="cls-2"/><path d="M540.2 194.7h30" class="cls-5"/><path d="M568.6 196.8l-.4-.4 1.8-1.7-1.8-1.7.4-.3 2.2 2-2.2 2.1z" class="cls-2"/><path d="M483.3 57.8H178.2" class="cls-5"/><path d="M481.7 55.7l-.4.4 1.8 1.7-1.8 1.6.4.4 2.2-2.1z" class="cls-2"/></g><g class="cls-3"><path d="M501.5 216.8a2.2 2.2 0 0 1 1.8.6 1.7 1.7 0 0 1 .3 1 1.3 1.3 0 0 1-1 1.4c.6.1.8.7.9 1.2a2.6 2.6 0 0 0 .4 1.5h-1.3a3.6 3.6 0 0 1-.4-1.1c0-.3-.1-.7-.4-.8h-1.3v2.1h-1.3V217zm-1 2.6h.6c.6 0 1.3 0 1.3-.8s-.4-.7-.9-.7h-1zM505.4 220.8a.8.8 0 0 0 .8.9.9.9 0 0 0 .8-.5h1.2a2 2 0 0 1-2 1.3 2 2 0 0 1-2.1-2.2 2.1 2.1 0 0 1 2.1-2.2 2.1 2.1 0 0 1 2.1 2.4v.2zm1.6-.9a.7.7 0 0 0-.8-.7c-.5 0-.7.2-.8.7zM510.3 219.2v1.9c0 .4 0 .5.4.5h.3v.9h-.8c-.9 0-1.1-.4-1.1-1.3v-2h-.6v-.9h.6v-1.2h1.2v1.2h.7v.9zM514.2 222.1a1.7 1.7 0 0 1-1.3.5 1.2 1.2 0 0 1-1.4-1.3c0-.9.7-1.2 1.4-1.4h.6c.3-.1.6-.1.6-.4s-.4-.4-.6-.4-.7.2-.7.6h-1.1a1.6 1.6 0 0 1 1.8-1.5c1.1 0 1.8.4 1.8 1.6v1.8a2 2 0 0 0 .2.9h-1.2zm0-1.6h-.3c-.3.1-1.3.1-1.3.6s.4.5.6.5a1.1 1.1 0 0 0 1-.6zM517.3 217.9h-1.1v-1.1h1.1zm0 4.6h-1.1v-4.2h1.1zM519.3 222.5h-1.1v-5.7h1.1zM521.2 220.8a.8.8 0 0 0 .9.9.8.8 0 0 0 .7-.5h1.2a1.9 1.9 0 0 1-2 1.3 2 2 0 0 1-2.1-2.2 2.1 2.1 0 1 1 4.2.2v.2zm1.6-.9a.7.7 0 0 0-.7-.7.8.8 0 0 0-.9.7zM525.8 219a1.1 1.1 0 0 1 1.1-.7h.2v1.1h-.3c-.9 0-1 .7-1 1.2v2h-1.2v-4.2h1.2z" class="cls-2"/></g><g class="cls-4"><path d="M499.5 164.7h28.8v39.2h-28.8z" class="cls-6"/><path d="M502 180.1h4.1v1.8H502zm6.5 0h4.2v1.8h-4.2zm6.6 0h4.2v1.8h-4.2zm6.6 0h4.2v1.8h-4.2zm-19.7 4.7h4.1v1.8H502zm6.5 0h4.2v1.8h-4.2zm6.6 0h4.2v1.8h-4.2zm6.6 0h4.2v1.8h-4.2zm-19.7 4.6h4.1v1.8H502zm6.5 0h4.2v1.8h-4.2zm6.6 0h4.2v1.8h-4.2zm6.6 0h4.2v1.8h-4.2z" class="cls-2"/><path d="M497.8 175.2h32.7m-25.3 20.4h6.7v8.4h-6.7z" class="cls-6"/><path d="M514.6 169.9a4.3 4.3 0 0 1-.9 2.6 4.4 4.4 0 0 1 0-5.3 4.4 4.4 0 0 1 .9 2.7" class="cls-2"/><path d="M515.5 170.9a4.6 4.6 0 0 1-1.8 1.6 4.4 4.4 0 0 1 .5-2.2 5.5 5.5 0 0 1 1.8-1.6 4.4 4.4 0 0 1-.5 2.2" class="cls-2"/><path d="M516.2 171.7a5.7 5.7 0 0 1-2.5.8 4.6 4.6 0 0 1 1.7-1.7 5.3 5.3 0 0 1 2.5-.8 4.6 4.6 0 0 1-1.7 1.7" class="cls-2"/><path d="M515.7 172.6a4.6 4.6 0 0 1-2-.1 4.9 4.9 0 0 1 1.8-.8 4.6 4.6 0 0 1 2 .1 3.7 3.7 0 0 1-1.8.8" class="cls-2"/><path d="M512.3 170.9a4 4 0 0 0 1.8 1.6 5.9 5.9 0 0 0-.5-2.2 5.5 5.5 0 0 0-1.8-1.6 3.6 3.6 0 0 0 .5 2.2" class="cls-2"/><path d="M511.6 171.7a5.3 5.3 0 0 0 2.4.8 3.7 3.7 0 0 0-1.6-1.7 5.3 5.3 0 0 0-2.5-.8 4.6 4.6 0 0 0 1.7 1.7" class="cls-2"/><path d="M512.1 172.6a4.6 4.6 0 0 0 2-.1 7.1 7.1 0 0 0-1.8-.8 4.5 4.5 0 0 0-2 .1 3.7 3.7 0 0 0 1.8.8" class="cls-2"/></g><g class="cls-3"><path d="M502.5 84a2.5 2.5 0 0 1 1.8.6 1.7 1.7 0 0 1 .3 1 1.3 1.3 0 0 1-1 1.4c.6.1.7.7.8 1.2a2.7 2.7 0 0 0 .5 1.5h-1.4a3.5 3.5 0 0 1-.3-1.1c-.1-.3-.1-.7-.4-.8h-1.4v2.1h-1.2V84zm-1.1 2.6h.7c.6 0 1.2 0 1.2-.8s-.4-.7-.9-.7h-1zM506.3 88c.1.5.4.9.9.9a.9.9 0 0 0 .8-.5h1.2a2 2 0 0 1-2 1.3 2 2 0 0 1-2.1-2.2 2.1 2.1 0 0 1 2.1-2.2c1.4 0 2 1.1 2 2.4v.3zm1.7-.9a.8.8 0 0 0-.8-.7.8.8 0 0 0-.9.7zM511.2 86.4v1.9c0 .4.1.5.5.5h.3v.9h-.8c-1 0-1.1-.4-1.1-1.3v-2h-.6v-.9h.6v-1.2h1.1v1.2h.8v.9zM515.2 89.3a1.9 1.9 0 0 1-1.3.5c-.8 0-1.5-.4-1.5-1.3s.7-1.2 1.5-1.4h.6c.3-.1.6-.1.6-.4s-.4-.4-.6-.4-.8.2-.8.6h-1.1a1.6 1.6 0 0 1 1.8-1.5c1.1 0 1.9.4 1.9 1.6v1.8a2.2 2.2 0 0 0 .1.9h-1.2zm-.1-1.6h-.3c-.3.1-1.2.1-1.2.6s.3.5.6.5a1.1 1.1 0 0 0 .9-.6zM518.3 85.1h-1.2V84h1.2zm0 4.6h-1.2v-4.2h1.2zM520.3 89.7h-1.2V84h1.2zM522.1 88c.1.5.4.9.9.9a.9.9 0 0 0 .8-.5h1.2a2 2 0 0 1-2 1.3 2 2 0 0 1-2.1-2.2 2.1 2.1 0 0 1 2.1-2.2c1.4 0 2 1.1 2 2.4v.3zm1.7-.9a.7.7 0 0 0-.8-.7c-.5 0-.7.2-.9.7zM526.8 86.2a1 1 0 0 1 1-.7h.2v1.1h-.2c-.9 0-1 .7-1 1.2v2h-1.2v-4.3h1.2z" class="cls-2"/></g><g class="cls-4"><g class="cls-3"><g class="cls-3"><path d="M583.1 84h1.3v5.7h-1.3v-2.4h-2v2.4h-1.3V84h1.3v2.2h2zM587.8 89.3a1.7 1.7 0 0 1-1.3.5c-.8 0-1.5-.4-1.5-1.3s.7-1.2 1.5-1.4h.6c.3-.1.6-.1.6-.4s-.4-.4-.6-.4-.7.2-.7.6h-1.1c0-1.4 1.4-1.5 1.7-1.5s1.9.4 1.9 1.6v1.8a2 2 0 0 0 .2.9h-1.3zm0-1.6h-.3c-.4.1-1.3.1-1.3.6s.3.5.6.5a1.1 1.1 0 0 0 1-.6zM590.9 85.5v.5a1.3 1.3 0 0 1 1.1-.6c1.1 0 1.8.9 1.8 2.2a2 2 0 0 1-1.8 2.2 1.4 1.4 0 0 1-1.1-.5V91h-1.2v-5.5zm.8.9c-.7 0-.8.7-.8 1.3s.2 1.1.8 1.1.9-.7.9-1.3-.2-1.1-.9-1.1z" class="cls-2"/></g><g class="cls-3"><path d="M595.5 85.5v.5a1.4 1.4 0 0 1 1.2-.6c1.1 0 1.7.9 1.7 2.2a2 2 0 0 1-1.8 2.2 1.4 1.4 0 0 1-1-.5V91h-1.2v-5.5zm.9.9c-.7 0-.8.7-.8 1.3s.1 1.1.8 1.1.8-.7.8-1.3-.2-1.1-.8-1.1z" class="cls-2"/></g><g class="cls-3"><path d="M602.5 85.5l-1.4 4.2a6.3 6.3 0 0 1-.4.9 2.1 2.1 0 0 1-1.5.4h-.3v-1h.4c.5 0 .6-.2.6-.5s-.1-.3-.2-.6l-1.2-3.4h1.3l.7 2.8.7-2.8zM610.4 87.8a2.3 2.3 0 0 1-2.5 2 2.7 2.7 0 0 1-2.8-3 2.7 2.7 0 0 1 2.8-2.9 2.2 2.2 0 0 1 2.4 1.8h-1.2a1.2 1.2 0 0 0-1.2-.8c-1.1 0-1.5.9-1.5 1.8s.3 2 1.5 2a1.1 1.1 0 0 0 1.2-1.1zM612.8 89.8a2 2 0 0 1-2.1-2.2 2 2 0 0 1 2.2-2.2 2.1 2.1 0 0 1 2.1 2.2 2.1 2.1 0 0 1-2.2 2.2zm0-3.4c-.7 0-.9.6-.9 1.2s.2 1.3.9 1.3 1-.7 1-1.3-.3-1.2-1-1.2zM618.1 89.7v-2.4c0-.4-.2-.8-.6-.8s-.7.5-.7.9v2.3h-1.2v-4.2h1.1v.5a1.7 1.7 0 0 1 1.2-.5 1.1 1.1 0 0 1 .8.2 1.6 1.6 0 0 1 .6 1.4v2.6zM620.9 88.2c.1.6.4.7.9.7s.6 0 .6-.4-2.4-.1-2.4-1.8.8-1.3 1.7-1.3a1.6 1.6 0 0 1 1.8 1.4h-1.1a.7.7 0 0 0-.7-.6c-.3 0-.6 0-.6.3s2.5.2 2.5 1.8-1 1.4-1.9 1.4-1.9-.4-1.9-1.5h1.1zM626.8 89.7v-.5a1.6 1.6 0 0 1-1.2.6c-1.3 0-1.4-1.1-1.4-1.8v-2.5h1.2v2.4c0 .5.1.9.6.9s.7-.5.7-1.1v-2.2h1.2v4.2zM633.6 89.7v-2.2c0-.4-.1-1-.6-1s-.7.6-.7 1v2.2h-1.2v-2.4c0-.3-.1-.8-.6-.8s-.6.6-.6 1v2.2h-1.2v-4.2h1.2v.6c.2-.5.6-.6 1.1-.6a1.1 1.1 0 0 1 1.1.7 1.4 1.4 0 0 1 1.3-.7 1.6 1.6 0 0 1 .9.3c.4.3.4.8.4 1.3v2.6zM636.6 88a.8.8 0 0 0 .9.9.8.8 0 0 0 .7-.5h1.2a2 2 0 0 1-2 1.3 2 2 0 0 1-2.1-2.2 2.1 2.1 0 1 1 4.2.2v.3zm1.6-.9a.7.7 0 0 0-.7-.7.8.8 0 0 0-.9.7zM641.2 86.2a1.1 1.1 0 0 1 1.1-.7h.2v1.1h-.3c-.9 0-1 .7-1 1.2v2H640v-4.3h1.2z" class="cls-2"/></g></g><path d="M499.4 27.9h28.9v39.3h-28.9z" class="cls-6"/><path d="M501.9 43.3h4.2v1.9h-4.2zm6.6 0h4.2v1.9h-4.2zm6.6 0h4.2v1.9h-4.2zm6.6 0h4.2v1.9h-4.2zM501.9 48h4.2v1.8h-4.2zm6.6 0h4.2v1.8h-4.2zm6.6 0h4.2v1.8h-4.2zm6.6 0h4.2v1.8h-4.2zm-19.8 4.6h4.2v1.8h-4.2zm6.6 0h4.2v1.8h-4.2zm6.6 0h4.2v1.8h-4.2zm6.6 0h4.2v1.8h-4.2z" class="cls-2"/><path d="M497.8 38.4h32.7m-25.3 20.4h6.6v8.4h-6.6z" class="cls-6"/><path d="M514.6 32.8a6.2 6.2 0 0 1-.9 2.6 4.3 4.3 0 0 1-.9-2.6 4.4 4.4 0 0 1 .9-2.7 6.2 6.2 0 0 1 .9 2.7" class="cls-2"/><path d="M515.5 33.8a6.9 6.9 0 0 1-1.8 1.6 3.6 3.6 0 0 1 .5-2.2 4.4 4.4 0 0 1 1.7-1.6 4.3 4.3 0 0 1-.4 2.2" class="cls-2"/><path d="M516.2 34.6a5.7 5.7 0 0 1-2.5.8 4.4 4.4 0 0 1 1.6-1.7 5.7 5.7 0 0 1 2.5-.8 4.4 4.4 0 0 1-1.6 1.7" class="cls-2"/><path d="M515.7 35.5a4.4 4.4 0 0 1-2-.1 3.8 3.8 0 0 1 1.7-.8 4.4 4.4 0 0 1 2 .1 3.8 3.8 0 0 1-1.7.8" class="cls-2"/><path d="M512.2 33.8a6.9 6.9 0 0 0 1.8 1.6 3.6 3.6 0 0 0-.5-2.2 4 4 0 0 0-1.8-1.6 5.9 5.9 0 0 0 .5 2.2" class="cls-2"/><path d="M511.5 34.6a5.7 5.7 0 0 0 2.5.8 4.4 4.4 0 0 0-1.6-1.7 5.7 5.7 0 0 0-2.5-.8 4.4 4.4 0 0 0 1.6 1.7" class="cls-2"/><path d="M512 35.5a4.5 4.5 0 0 0 2-.1 3.7 3.7 0 0 0-1.8-.8 4.6 4.6 0 0 0-2 .1 4.8 4.8 0 0 0 1.8.8" class="cls-2"/></g><g class="cls-3"><g class="cls-3"><path d="M585.9 220.6a2.3 2.3 0 0 1-2.5 2 3 3 0 0 1 0-5.9 2.4 2.4 0 0 1 2.5 1.8h-1.3a1.2 1.2 0 0 0-1.2-.8c-1.1 0-1.4.9-1.4 1.8s.3 2 1.4 2a1.1 1.1 0 0 0 1.2-1.1zM588.3 222.6a2 2 0 0 1-2.1-2.2 2.1 2.1 0 0 1 2.2-2.2 2.1 2.1 0 0 1 2.1 2.2 2.1 2.1 0 0 1-2.2 2.2zm0-3.4c-.7 0-.9.6-.9 1.2s.2 1.3.9 1.3 1-.7 1-1.3-.3-1.2-1-1.2zM593.6 222.5v-2.4c0-.4-.2-.8-.6-.8s-.7.5-.7.9v2.3h-1.2v-4.2h1.1v.5a1.7 1.7 0 0 1 1.2-.5 1.1 1.1 0 0 1 .8.2 1.6 1.6 0 0 1 .6 1.4v2.6zM596.5 221c0 .6.3.7.8.7s.6 0 .6-.4-2.4-.1-2.4-1.8.9-1.3 1.7-1.3 1.8.4 1.8 1.4h-1.1a.7.7 0 0 0-.7-.6c-.2 0-.6 0-.6.3s2.5.2 2.5 1.8-.9 1.4-1.8 1.4-2-.4-2-1.5h1.2zM602.3 222.5v-.5a1.6 1.6 0 0 1-1.2.6c-1.3 0-1.4-1.1-1.4-1.8v-2.5h1.2v2.4c0 .5.1.9.6.9s.8-.5.8-1.1v-2.2h1.1v4.2zM609.1 222.5v-2.2c0-.4-.1-1-.6-1s-.7.6-.7 1v2.2h-1.1v-2.4c0-.3-.1-.8-.7-.8s-.6.6-.6 1v2.2h-1.2v-4.2h1.2v.6c.2-.5.6-.6 1.1-.6a1.1 1.1 0 0 1 1.1.7 1.5 1.5 0 0 1 1.3-.7 1.4 1.4 0 0 1 .9.3c.4.3.4.8.4 1.3v2.6zM612.1 220.8c.1.5.3.9.9.9a1 1 0 0 0 .8-.5h1.1a1.9 1.9 0 0 1-2 1.3 1.9 1.9 0 0 1-2-2.2 2.1 2.1 0 0 1 2-2.2 2.1 2.1 0 0 1 2.1 2.4v.2zm1.6-.9a.7.7 0 0 0-.7-.7.8.8 0 0 0-.9.7zM616.7 219a1.1 1.1 0 0 1 1.1-.7h.2v1.1h-.3c-.8 0-.9.7-.9 1.2v2h-1.3v-4.2h1.2zM621.9 218.3v.5a1.3 1.3 0 0 1 1.1-.6c1.1 0 1.7.9 1.7 2.2s-.5 2.2-1.7 2.2a1.2 1.2 0 0 1-1.1-.5v1.7h-1.2v-5.5zm.8.9c-.7 0-.8.7-.8 1.3s.1 1.1.8 1.1.9-.7.9-1.3-.2-1.1-.9-1.1z" class="cls-2"/></g><g class="cls-3"><path d="M627.9 222.1a1.7 1.7 0 0 1-1.3.5 1.3 1.3 0 0 1-1.4-1.3c0-.9.7-1.2 1.5-1.4h.5c.4-.1.7-.1.7-.4s-.5-.4-.7-.4-.7.2-.7.6h-1.1a1.6 1.6 0 0 1 1.8-1.5c1.1 0 1.9.4 1.9 1.6v1.8a2.2 2.2 0 0 0 .1.9H628zm0-1.6h-.3c-.3.1-1.2.1-1.2.6a.5.5 0 0 0 .5.5 1.1 1.1 0 0 0 1-.6zM633.3 218.3l-1.4 4.2a2.3 2.3 0 0 1-.4.9c-.3.3-.7.4-1.5.4h-.3v-.9h.4c.5 0 .6-.2.6-.5s-.1-.3-.2-.6l-1.2-3.4h1.3l.8 2.8.7-2.8z" class="cls-2"/></g><g class="cls-3"><path d="M634.6 221c.1.6.4.7.9.7s.6 0 .6-.4-2.5-.1-2.5-1.8.9-1.3 1.7-1.3 1.8.4 1.9 1.4h-1.1a.8.8 0 0 0-.8-.6c-.2 0-.5 0-.5.3s2.5.2 2.5 1.8-1 1.4-1.9 1.4-1.9-.4-1.9-1.5h1.1z" class="cls-2"/></g></g><g class="cls-4"><g class="cls-3"><g class="cls-3"><path d="M593.8 229.2v3.3h-1.1v-3.3h-.6v-.9h.6c0-1.3.5-1.5 1.5-1.5h.4v1h-.1c-.4 0-.7 0-.7.4h.8v.9z" class="cls-2"/></g><g class="cls-3"><path d="M596.8 232.6a2 2 0 0 1-2.1-2.2 2.1 2.1 0 0 1 2.2-2.2 2.1 2.1 0 0 1 2.1 2.2 2.1 2.1 0 0 1-2.2 2.2zm.1-3.4c-.7 0-1 .6-1 1.2s.3 1.3 1 1.3.9-.7.9-1.3-.2-1.2-.9-1.2zM600.7 229a1.2 1.2 0 0 1 1.1-.7h.2v1.1h-.3c-.8 0-.9.7-.9 1.2v2h-1.2v-4.2h1.1zM610 230.6a2.4 2.4 0 0 1-2.6 2 3 3 0 0 1 .1-5.9 2.4 2.4 0 0 1 2.4 1.8h-1.3a1.1 1.1 0 0 0-1.2-.8c-1 0-1.4.9-1.4 1.8s.3 2 1.4 2a1.3 1.3 0 0 0 1.3-1.1zM612.3 232.6a2 2 0 0 1-2.1-2.2 2.1 2.1 0 0 1 2.2-2.2 2.1 2.1 0 0 1 2.1 2.2 2.1 2.1 0 0 1-2.2 2.2zm.1-3.4c-.7 0-1 .6-1 1.2s.3 1.3 1 1.3.9-.7.9-1.3-.2-1.2-.9-1.2zM616 231c.1.6.3.7.9.7s.6 0 .6-.4-2.5-.1-2.5-1.8.9-1.3 1.7-1.3 1.8.4 1.8 1.4h-1.1c0-.4-.3-.6-.7-.6s-.6 0-.6.3 2.6.2 2.6 1.8-1 1.4-1.9 1.4-1.9-.4-1.9-1.5h1.1zM620.7 229.2v1.9c0 .4.1.5.5.5h.3v.9h-.8c-1 0-1.2-.4-1.2-1.3v-2h-.5v-.9h.5v-1.2h1.2v1.2h.8v.9zM623 231c.1.6.3.7.9.7s.6 0 .6-.4-2.5-.1-2.5-1.8.9-1.3 1.7-1.3 1.8.4 1.8 1.4h-1.1c0-.4-.3-.6-.7-.6s-.6 0-.6.3 2.6.2 2.6 1.8-1 1.4-1.9 1.4-1.9-.4-1.9-1.5h1.1z" class="cls-2"/></g></g></g><g class="cls-3"><g class="cls-3"><path d="M411.1 222.5H410v-4.1l-1.1 4.1h-1.3l-1.1-4.1c0 1.5.1 4.1.1 4.1h-1.2v-5.7h1.8l1.1 4.2 1-4.2h1.8zM414.6 222.1a1.9 1.9 0 0 1-1.3.5c-.8 0-1.5-.4-1.5-1.3s.7-1.2 1.5-1.4h.6c.3-.1.6-.1.6-.4s-.4-.4-.6-.4-.8.2-.8.6H412a1.6 1.6 0 0 1 1.8-1.5c1.1 0 1.9.4 1.9 1.6v1.8a2.2 2.2 0 0 0 .1.9h-1.2zm-.1-1.6h-.3c-.3.1-1.2.1-1.2.6s.3.5.6.5a1.1 1.1 0 0 0 .9-.6zM417.7 219a1 1 0 0 1 1-.7h.2v1.1h-.2c-.9 0-1 .7-1 1.2v2h-1.2v-4.2h1.2z" class="cls-2"/></g><g class="cls-3"><path d="M423.3 218.3l-1.6 1.6 1.7 2.6h-1.5l-1-1.8-.4.4v1.4h-1.2v-5.7h1.2v3l1.3-1.5z" class="cls-2"/></g><g class="cls-3"><path d="M424.6 220.8c.1.5.4.9.9.9a.9.9 0 0 0 .8-.5h1.2a2 2 0 0 1-2 1.3 2 2 0 0 1-2.1-2.2 2.1 2.1 0 0 1 2.1-2.2c1.4 0 2 1.1 2 2.4v.2zm1.7-.9a.8.8 0 0 0-.8-.7c-.5 0-.7.2-.9.7zM429.6 219.2v1.9c0 .4 0 .5.4.5h.3v.9h-.8c-1 0-1.1-.4-1.1-1.3v-2h-.6v-.9h.6v-1.2h1.2v1.2h.7v.9zM432.1 217.9h-1.2v-1.1h1.2zm0 4.6h-1.2v-4.2h1.2zM435.5 222.5v-2.4a.7.7 0 0 0-.7-.8c-.5 0-.7.5-.7.9v2.3h-1.2v-4.2h1.2v.5a1.6 1.6 0 0 1 1.1-.5c.4 0 .7 0 .9.2a1.6 1.6 0 0 1 .6 1.4v2.6zM441.3 218.3v3.7a2.8 2.8 0 0 1-.1.9c-.3.8-1.2.9-1.9.9s-1.8-.2-1.9-1.3h1.3a.7.7 0 0 0 .7.4c.7 0 .8-.4.8-1v-.2a1.5 1.5 0 0 1-1.2.5 1.8 1.8 0 0 1-1.8-1.9 1.9 1.9 0 0 1 1.8-2.1 1.5 1.5 0 0 1 1.2.7v-.6zm-2 .9a1 1 0 0 0 0 2c.6 0 .8-.5.8-1s-.2-1-.8-1zM449.6 220.6a2.3 2.3 0 0 1-2.5 2 2.7 2.7 0 0 1-2.8-3 2.7 2.7 0 0 1 2.8-2.9 2.3 2.3 0 0 1 2.4 1.8h-1.2a1.2 1.2 0 0 0-1.2-.8c-1.1 0-1.5.9-1.5 1.8s.3 2 1.5 2a1.1 1.1 0 0 0 1.2-1.1zM452 222.6a2 2 0 0 1-2.1-2.2 2 2 0 0 1 2.2-2.2 2.1 2.1 0 0 1 2.1 2.2 2.1 2.1 0 0 1-2.2 2.2zm0-3.4c-.7 0-.9.6-.9 1.2s.2 1.3.9 1.3 1-.7 1-1.3-.3-1.2-1-1.2zM455.6 221c.1.6.4.7.9.7s.6 0 .6-.4-2.4-.1-2.4-1.8.8-1.3 1.7-1.3a1.6 1.6 0 0 1 1.8 1.4h-1.1a.7.7 0 0 0-.7-.6c-.3 0-.6 0-.6.3s2.5.2 2.5 1.8-1 1.4-1.9 1.4-1.9-.4-1.9-1.5h1.1zM460.4 219.2v1.9c0 .4 0 .5.4.5h.3v.9h-.8c-.9 0-1.1-.4-1.1-1.3v-2h-.6v-.9h.6v-1.2h1.2v1.2h.7v.9zM462.6 221c.1.6.4.7.9.7s.6 0 .6-.4-2.4-.1-2.4-1.8.8-1.3 1.7-1.3a1.6 1.6 0 0 1 1.8 1.4h-1.1a.7.7 0 0 0-.7-.6c-.3 0-.6 0-.6.3s2.5.2 2.5 1.8-1 1.4-1.9 1.4-1.9-.4-1.9-1.5h1.1z" class="cls-2"/></g></g><g class="cls-3"><path d="M436.8 181.9v1.2c1.3.3 2.3.7 2.4 2.6h-1.6a1.1 1.1 0 0 0-.8-1.2v2c1.4.4 2.7.9 2.7 2.6a2.5 2.5 0 0 1-2.7 2.6v1.3h-1v-1.2a2.6 2.6 0 0 1-2.7-2.7h1.7a1.1 1.1 0 0 0 1 1.1V188c-1.1-.3-2.6-.8-2.6-2.5s1.1-2.3 2.6-2.5v-1.2zm-1 2.7a.8.8 0 0 0-.9.9c0 .4.5.7.9.8zm1 5.7c.5-.1.9-.4.9-.9s-.4-.8-.9-.9z" class="cls-2"/></g><g class="cls-3"><path d="M430.2 188.2v1.2a2.5 2.5 0 0 1 2.4 2.5H431a1.1 1.1 0 0 0-.8-1.1v2c1.4.4 2.6.9 2.6 2.6a2.5 2.5 0 0 1-2.6 2.6v1.2h-1V198a2.7 2.7 0 0 1-2.8-2.8h1.7a1.2 1.2 0 0 0 1.1 1.2v-2.2c-1.1-.3-2.6-.8-2.6-2.5a2.4 2.4 0 0 1 2.6-2.5V188zm-1 2.7a.8.8 0 0 0-.9.8c0 .5.4.7.9.9zm1 5.7c.4-.2.9-.4.9-.9s-.5-.8-.9-.9z" class="cls-2"/></g><g class="cls-3"><path d="M443.6 175.8v1.2a2.4 2.4 0 0 1 2.4 2.5h-1.6a1 1 0 0 0-.8-1.1v2c1.4.4 2.7.8 2.7 2.5s-1.1 2.5-2.7 2.7v1.2h-.9v-1.2c-1.7-.2-2.8-1.1-2.8-2.8h1.7c0 .7.5 1 1.1 1.1V182c-1.2-.3-2.6-.8-2.6-2.6s1-2.3 2.6-2.4v-1.2zm-.9 2.6q-.9.2-.9.9c0 .5.4.7.9.9zm.9 5.7c.5-.1.9-.3.9-.9s-.4-.7-.9-.9z" class="cls-2"/></g><g class="cls-4"><path d="M431.1 206.1l-13.5-14.2a.7.7 0 0 1 0-.9l22.8-21.7a.4.4 0 0 1 .5-.1l12.2 1.9a.6.6 0 0 1 .6.6L455 184a.8.8 0 0 1-.2.5L432 206.2a.6.6 0 0 1-.9-.1z" class="cls-6"/><path d="M447.6 174.9a1.4 1.4 0 0 1 1.9 2.1 1.3 1.3 0 0 1-1.9-.1 1.3 1.3 0 0 1 0-2z" class="cls-6"/><path d="M112.6 9.4a2.4 2.4 0 0 0-1.5-2.3 2.1 2.1 0 0 0 1.3-2c0-1.9-1.4-2.5-3.3-2.5h-3.9v9.6h4.1c1.4 0 3.3-.5 3.3-2.8m-5.3-5h1.5c.6 0 1.4.1 1.4 1s-.8.9-1.5.9h-1.4zm0 6.1V8.1h1.6c.6 0 1.5.1 1.5 1.1s-.6 1.3-1.7 1.3zm27.3 2a2.7 2.7 0 0 0 1.8-.8v.5h2V2.6h-2v3a2.7 2.7 0 0 0-1.7-.6c-2.2 0-3.1 1.9-3.1 3.8s1 3.6 3 3.6m.4-5.6c1.2 0 1.4 1 1.4 2s-.2 1.9-1.4 1.9-1.4-1-1.4-2 .3-1.9 1.4-1.9m7.4 5.6a3.4 3.4 0 0 0 3.4-2.2l-2-.2a1.4 1.4 0 0 1-1.3.8 1.5 1.5 0 0 1-1.5-1.5h5V9c0-2.2-1.1-4-3.5-4a3.6 3.6 0 0 0-3.6 3.4v.3a3.6 3.6 0 0 0 3.2 3.8h.4m.1-5.9a1.3 1.3 0 0 1 1.3 1.2H141a1.4 1.4 0 0 1 1.5-1.2M102.2 15h53.9V0h-53.9zm1-13.7a.2.2 0 0 1 .2-.2h51.4a.2.2 0 0 1 .2.2v12.4c0 .1 0 .2-.2.2h-51.3a.2.2 0 0 1-.2-.2zm12 7.5c0-.8.2-1.9 1.7-1.9h.4V5.1h-.3a1.7 1.7 0 0 0-1.8 1v-1h-2v7.1h2.1zm11.5-.4c0-.8.3-1.6 1.2-1.6a1.2 1.2 0 0 1 1.1 1.3v4.2h2V7.9a2.7 2.7 0 0 0-.9-2.4 2.4 2.4 0 0 0-1.4-.5 2.5 2.5 0 0 0-2 .9v-.7h-2v7h2zm-5.9-.6h-1c-1.3.2-2.5.8-2.5 2.3a2.3 2.3 0 0 0 2.3 2.3h.2a3.2 3.2 0 0 0 2.1-.8v.6h2V7.6c0-2.1-1.2-2.6-3.2-2.6s-2.9.1-3 2.4h1.9c0-.6.5-.9 1.2-.9s1.1.1 1.1.7-.5.5-1.1.6m1.2 1.1v.7a1.1 1.1 0 0 1-.3.8 2.4 2.4 0 0 1-1.4.5.8.8 0 0 1-.9-.8c0-.9 1.5-.9 2.1-1.1h.5m27.2 3.6a2.3 2.3 0 0 0 1.8-.8h.1v.5h2V2.6h-2v3a2.7 2.7 0 0 0-1.7-.6c-2.1 0-3.1 1.9-3.1 3.8s1 3.6 3 3.6m.5-5.6c1.1 0 1.4 1 1.4 2s-.3 1.9-1.4 1.9-1.4-1-1.4-2 .3-1.9 1.4-1.9m7-6.5h.5v1.5h.3V.3h.5V0h-1.3zm3-.3l-.5 1.2-.5-1.2h-.4v1.8h.4v-1l.4 1h.2l.4-1v1h.4V0z" class="cls-2"/><path d="M163.4 24.8v45.1H97.7V24.8" class="cls-7"/><path d="M100.8 37.9h5.3v2.3h-5.3zm8.4 0h5.3v2.3h-5.3zm8.4 0h5.3v2.3h-5.3zm8.3 0h5.3v2.3h-5.3zm-25.1 5.9h5.3v2.3h-5.3zm8.4 0h5.3v2.3h-5.3zm8.4 0h5.3v2.3h-5.3zm8.3 0h5.3v2.3h-5.3zm12.2-5.9h5.3v2.3h-5.3zm8.4 0h5.3v2.3h-5.3zm8.4 0h5.3v2.3h-5.3zm-16.8 5.9h5.3v2.3h-5.3zm8.4 0h5.3v2.3h-5.3zm8.4 0h5.3v2.3h-5.3zm-16.8 5.9h5.3V52h-5.3zm8.4 0h5.3V52h-5.3zm8.4 0h5.3V52h-5.3zm-54.1 0h5.3V52h-5.3zm8.4 0h5.3V52h-5.3zm8.4 0h5.3V52h-5.3zm8.3 0h5.3V52h-5.3z" class="cls-2"/><path d="M95.5 24.8h70.1m-48-.4v-8.2m23.4 8.2v-8.2m-6.7 8.6v31.1m-9.6.8h19.1v13.2h-19.1zM94.8 167.9v37h54.6v-37" class="cls-7"/><path d="M141 173h5.3v2.3H141zm-8.4 0h5.3v2.3h-5.3zm-8.3 0h5.3v2.3h-5.3zm-8.4 0h5.3v2.3h-5.3zm25.1 5.9h5.3v2.3H141zm-16.7 0h5.3v2.3h-5.3zm-17.6-5.9h5.3v2.3h-5.3zm-8.4 0h5.3v2.3h-5.3zm8.4 5.9h5.3v2.3h-5.3zm0 5.8h5.3v2.4h-5.3zm-8.4 0h5.3v2.4h-5.3zm42.7 0h5.3v2.4H141zm-8.4 0h5.3v2.4h-5.3zm-8.3 0h5.3v2.4h-5.3zm-8.4 0h5.3v2.4h-5.3z" class="cls-2"/><path d="M151.6 167.9H92.5m42.8 23.9h9.5v7.3h-9.5zm-16.7 0h9.5v7.3h-9.5zm-17.6 0h9.5v7.3H101zm43.8-23.9l-9.4-9.4v9.4m-7.4 0l-9.4-9.4v9.4m-8.2 0l-9.4-9.4v9.4m43.8 37h10.1v-49.2h-10.1v12.2m2.8-25.8a4.3 4.3 0 0 1 4.7 3.7 4.1 4.1 0 0 1-.3 2.2 15.1 15.1 0 0 1-1.8 2.6 5.3 5.3 0 0 0-.9 3" class="cls-7"/><path d="M614.2 62.1a6.3 6.3 0 0 1-7.5 4.2" class="cls-8"/><path d="M604.2 53.5c0 1.3-.6 2.3-1.3 2.3s-1.3-1-1.3-2.3.6-2.2 1.3-2.2 1.3 1 1.3 2.2m8.5 0c0 1.3-.6 2.3-1.3 2.3s-1.3-1-1.3-2.3.6-2.2 1.3-2.2 1.3 1 1.3 2.2" class="cls-2"/><path d="M607.6 55l-.7 4v.8a1.1 1.1 0 0 0 1.2.7 2.3 2.3 0 0 0 1.4-.4" class="cls-8"/><path d="M595.8 51.6a1.3 1.3 0 0 0-1.8-.2 2.1 2.1 0 0 0-.6 1.8 4.4 4.4 0 0 0 .7 1.9 2.8 2.8 0 0 0 1 1.4 1.1 1.1 0 0 0 1.6-.2" class="cls-9"/><path d="M621.1 56.4a1.1 1.1 0 0 0 1.6.2 4.5 4.5 0 0 0 1-1.4 10.7 10.7 0 0 0 .7-1.9 2.5 2.5 0 0 0-.6-1.8 1.5 1.5 0 0 0-1.8 0c.5-1.3 1-2.6 1.6-3.9a6.4 6.4 0 0 0 .3-5.4 4.7 4.7 0 0 0-4.3-2.9 31.9 31.9 0 0 0-4.4-4.6 10.3 10.3 0 0 0-5.4-2.7 10.9 10.9 0 0 0-6.6 1.5c-2 1.1-4 2.5-5.9 3.7 1.2.6 4.4 1.1 4 1.6a25.9 25.9 0 0 1-7.8 6.6c1.6 1.5 4.1 1.6 6.2 1.1a44.4 44.4 0 0 0 6.1-2.2A21.1 21.1 0 0 1 618 44a4 4 0 0 0 .4 2.8l1 1.8a4 4 0 0 1 .7 1.8v1.1l.5 1.5v6.8a7 7 0 0 1-1.9 4.9l-6.2 6.8a5.5 5.5 0 0 1-7.8.3c-.2-.1-.3-.3-.5-.5l-5.8-6.7a7.1 7.1 0 0 1-1.7-4.7V47.3" class="cls-9"/><path d="M605.6 201.3a6.3 6.3 0 0 1 5.9-2.4 7.4 7.4 0 0 1 2.7 1" class="cls-8"/><path d="M605.2 187c-.3 0-.9.5-1.2.6s-1-.1-1 .7.5 2.3 1.3 2.3 1.3-1 1.3-2.3a4.1 4.1 0 0 0-.1-1.1l-.3-.2" class="cls-2"/><path d="M609 189.8l-.7 4a.9.9 0 0 0 0 .7 1.2 1.2 0 0 0 1.2.8 3.7 3.7 0 0 0 1.4-.4" class="cls-8"/><path d="M597.2 186.3a1.4 1.4 0 0 0-1.8-.1 2 2 0 0 0-.6 1.8 4.4 4.4 0 0 0 .7 1.9 2.6 2.6 0 0 0 1 1.4 1.1 1.1 0 0 0 1.5-.2" class="cls-9"/><path d="M622.5 191.1a1.2 1.2 0 0 0 1.6.3 4 4 0 0 0 1-1.5 5.5 5.5 0 0 0 .6-1.8 1.7 1.7 0 0 0-.6-1.8 1.4 1.4 0 0 0-1.7 0c.5-1.3 1-2.6 1.6-3.9a6.4 6.4 0 0 0 .3-5.4 4.6 4.6 0 0 0-4.3-2.9 32.7 32.7 0 0 0-4.4-4.7 11.1 11.1 0 0 0-5.4-2.7 11.8 11.8 0 0 0-6.7 1.5c-2 1.1-3.9 2.5-5.9 3.7 1.3.6 4.4 1.2 4 1.7a27 27 0 0 1-7.7 6.6 6.9 6.9 0 0 0 6.1 1.1l6.2-2.2a21.3 21.3 0 0 1 7.5-1.1 23.2 23.2 0 0 1 3.8.5c.2 0 .7.1.8.3s-.1.7-.1.8a4.1 4.1 0 0 0 .5 1.9l1 1.8a4.5 4.5 0 0 1 .7 1.8v1.1l.5 1.5v6.9a7.1 7.1 0 0 1-1.9 4.8l-6.2 6.8a5.5 5.5 0 0 1-7.8.4l-.5-.5-5.8-6.7a7.3 7.3 0 0 1-1.7-4.7V182" class="cls-9"/><path d="M612 187c.3 0 .9.5 1.2.6s1-.1 1 .7-.6 2.3-1.3 2.3-1.3-1-1.3-2.3a4.1 4.1 0 0 1 .1-1.1l.3-.2" class="cls-2"/></g><g class="cls-3"><path d="M204.7 219.2a1 1 0 0 0-1.1-.9q-.9 0-.9.6c0 .4.4.5.9.6l.8.2a1.8 1.8 0 0 1 1.6 1.7c0 .7-.3 1.8-2.4 1.8s-2.3-.4-2.4-1.9h1.3c0 .7.4 1 1.2 1s1-.1 1-.7-.5-.6-1.1-.7h-.4c-1.1-.2-1.8-.6-1.8-1.7s1.6-1.7 2.3-1.7 2.2.7 2.2 1.8zM209.3 223.1v-.5a1.4 1.4 0 0 1-1.2.6c-1.3 0-1.4-1-1.4-1.8V219h1.2v2.3c0 .5.1.9.7.9s.7-.5.7-1.1V219h1.1v4.1zM212.4 219v.5a1.1 1.1 0 0 1 1.1-.6 1.9 1.9 0 0 1 1.8 2.1 2 2 0 0 1-1.8 2.2 1.2 1.2 0 0 1-1.1-.5v1.7h-1.2V219zm.8.8c-.7 0-.8.7-.8 1.3s.1 1.1.8 1.1.9-.7.9-1.2-.2-1.2-.9-1.2zM217 219v.5a1.2 1.2 0 0 1 1.2-.6c1.1 0 1.7.9 1.7 2.1a2 2 0 0 1-1.8 2.2 1.1 1.1 0 0 1-1-.5v1.7h-1.2V219zm.9.8c-.7 0-.8.7-.8 1.3s.1 1.1.8 1.1.8-.7.8-1.2-.2-1.2-.8-1.2zM221.8 223.1h-1.2v-5.6h1.2zM226.1 219l-1.3 4.1a6.3 6.3 0 0 1-.4.9 2.1 2.1 0 0 1-1.5.4h-.3v-1h.4c.4 0 .5-.2.5-.5a1.5 1.5 0 0 0-.1-.6l-1.2-3.3h1.3l.7 2.7.7-2.7zM234.1 221.2a2.4 2.4 0 0 1-2.6 2 3 3 0 0 1 .1-5.9 2.3 2.3 0 0 1 2.4 1.9h-1.3a1 1 0 0 0-1.1-.8c-1.1 0-1.5.9-1.5 1.8s.3 2 1.5 2a1.1 1.1 0 0 0 1.2-1.1zM237.1 223.1v-2.3c0-.4 0-.9-.6-.9s-.8.6-.8 1v2.2h-1.1v-5.6h1.1v1.9a1.7 1.7 0 0 1 1.2-.5 1.3 1.3 0 0 1 1.4 1.5v2.7zM241.6 222.7a1.7 1.7 0 0 1-1.3.5 1.2 1.2 0 0 1-1.4-1.3c0-.9.7-1.2 1.4-1.3h.6c.3-.1.6-.1.6-.4s-.4-.4-.6-.4-.7.2-.7.6h-1.1a1.6 1.6 0 0 1 1.8-1.5c1.1 0 1.8.4 1.8 1.6v1.8a2 2 0 0 0 .2.9h-1.2zm0-1.6h-.3c-.3.1-1.3.1-1.3.6s.4.5.6.5a1.2 1.2 0 0 0 1-.5zM244.7 218.5h-1.1v-1h1.1zm0 4.6h-1.1V219h1.1zM248.1 223.1v-2.4c0-.4-.2-.8-.6-.8s-.7.5-.7.9v2.3h-1.2V219h1.1v.4a1.7 1.7 0 0 1 1.2-.5 1.1 1.1 0 0 1 .8.2 1.7 1.7 0 0 1 .6 1.5v2.5zM257.6 221.2a2.4 2.4 0 0 1-2.6 2 2.7 2.7 0 0 1-2.8-2.9 2.8 2.8 0 0 1 2.9-3 2.3 2.3 0 0 1 2.4 1.9h-1.3a1 1 0 0 0-1.1-.8c-1.1 0-1.5.9-1.5 1.8s.3 2 1.5 2a1.1 1.1 0 0 0 1.2-1.1zM259.9 223.2a2 2 0 0 1-2.1-2.1 2.1 2.1 0 0 1 2.2-2.3 2.1 2.1 0 0 1 2.1 2.2 2.1 2.1 0 0 1-2.2 2.2zm.1-3.4c-.7 0-1 .6-1 1.2s.3 1.3 1 1.3.9-.7.9-1.3-.2-1.2-.9-1.2zM263.6 221.6c.1.6.4.7.9.7s.6 0 .6-.4-2.5-.1-2.5-1.8.9-1.3 1.7-1.3 1.8.4 1.9 1.4h-1.1a.8.8 0 0 0-.8-.6c-.2 0-.5 0-.5.4s2.5.1 2.5 1.7-1 1.4-1.9 1.4-1.9-.4-1.9-1.5h1.1zM268.3 219.9v1.8c0 .4.1.5.5.5h.3v.9h-.8c-1 0-1.1-.4-1.1-1.2v-2h-.6v-.9h.6v-1.3h1.1v1.3h.8v.9zM270.6 221.6c.1.6.4.7.9.7s.6 0 .6-.4-2.5-.1-2.5-1.8.9-1.3 1.7-1.3 1.8.4 1.9 1.4h-1.1a.8.8 0 0 0-.8-.6c-.2 0-.5 0-.5.4s2.5.1 2.5 1.7-1 1.4-1.9 1.4-1.9-.4-1.9-1.5h1.1z" class="cls-2"/></g><g class="cls-4"><path d="M250.6 195.1a4.1 4.1 0 0 0-4 3.4c0 .2-.1.5-.1.7s.1.5.1.8h8a3.8 3.8 0 0 0 0-1.5 4 4 0 0 0-4-3.4zm-30.1 3.4a1.7 1.7 0 0 1-.1.7 2.2 2.2 0 0 1 .1.8h8a2.2 2.2 0 0 0 .1-.8 1.7 1.7 0 0 0-.1-.7zm24.2-6.8h-28.2v3.2h4.5a5.6 5.6 0 0 1 7.4.2v-.2h18.5v.2a5.5 5.5 0 0 1 7.3-.2h5.7v-5.3l-6.2-7.2h-7.5v7.9a1.4 1.4 0 0 1-1.4 1.4zM228.3 178c0 .5.4.7.9.9v-1.8a.8.8 0 0 0-.9.9z" class="cls-1"/><path d="M224.6 195.1a4.1 4.1 0 0 0-4 3.4h8a4.3 4.3 0 0 0-4-3.4zm5.6-14.1v1.8c.4-.1.9-.4.9-.9s-.5-.8-.9-.9z" class="cls-1"/><path d="M244.7 170.2h-30.2v20h30.1zm-14.5 14.1v1.2h-1v-1.2a2.7 2.7 0 0 1-2.8-2.7h1.7v.2a1.1 1.1 0 0 0 1.1 1.1v-2.2c-1.1-.3-2.6-.8-2.6-2.5s1.1-2.3 2.6-2.5v-1.2h1v1.2a2.5 2.5 0 0 1 2.4 2.5H231a1.1 1.1 0 0 0-.8-1.1v2c1.4.4 2.6.9 2.6 2.6a2.5 2.5 0 0 1-2.5 2.6zm-13.7 14.2h2.5a5.2 5.2 0 0 1 .7-2.1h-3.2zm39.6 0h3.9v-2.1h-4.5a3.7 3.7 0 0 1 .6 2.1zm-26 0h15a5.2 5.2 0 0 1 .7-2.1h-16.4a5.2 5.2 0 0 1 .7 2.1zm20.5 4.8a4 4 0 0 0 4-3.3h-8a4.1 4.1 0 0 0 4 3.3zm-26 0a4.2 4.2 0 0 0 4-3.3h-8a4 4 0 0 0 4 3.3z" class="cls-1"/><path d="M216.5 191v.8h28.2a1.6 1.6 0 0 0 1.5-1.5v-7.9h-.8v-1.5h.8v-10.7a1.5 1.5 0 0 0-1.5-1.4h-30.2a1.4 1.4 0 0 0-1.4 1.4v20a1.5 1.5 0 0 0 1.4 1.5h.5v-.7zm-1.9-.7v-20h30.2v20zm30.5 8.2h-15v1.4h15a2.5 2.5 0 0 1 0-1.4z" class="cls-2"/><path d="M261 188.6l-6.3-7.2a1.6 1.6 0 0 0-1.1-.5h-8.2v1.5h8.2l6.3 7.2v5.3h.7v1.5h-.7v2.1h-3.8v1.5h3.9a1.5 1.5 0 0 0 1.4-1.5v-8.9a1 1 0 0 0-.4-.9zm-42 9.9h-2.5v-2.1h-.7v-1.5h.7V191H215v7.6a1.4 1.4 0 0 0 1.4 1.4h2.6c0-.2-.1-.5-.1-.8s.1-.4.1-.7z" class="cls-2"/><path d="M230.1 198.5a5.2 5.2 0 0 0-.7-2.1h-1v-1.3a5.6 5.6 0 0 0-7.4-.2h.3v1.5h-1.6a5.4 5.4 0 0 0-.8 2.8c0 .3.1.5.1.8a5.6 5.6 0 0 0 6.3 4.8 5.7 5.7 0 0 0 4.8-4.8v-1.5zm-1.5 1.5a4.1 4.1 0 0 1-4.9 3.1 3.8 3.8 0 0 1-3.1-3.1 1.9 1.9 0 0 1-.1-.8 1.3 1.3 0 0 1 .1-.6 4 4 0 0 1 4.8-3.2 4.1 4.1 0 0 1 3.2 3.2v1.4zm27.5-1.5a3.8 3.8 0 0 0-.7-2.1h-1.5v-1.5h.2a5.4 5.4 0 0 0-7.2.2v1.3h-1.1a4.8 4.8 0 0 0-.7 2.1 1.7 1.7 0 0 0-.1.7 2.2 2.2 0 0 0 .1.8 5.6 5.6 0 0 0 6.3 4.8 5.5 5.5 0 0 0 4.7-4.8 2.2 2.2 0 0 0 .1-.8 1.7 1.7 0 0 0-.1-.7zm-1.5 1.5a4 4 0 0 1-4.8 3.1 4.1 4.1 0 0 1-3.2-3.1 2.5 2.5 0 0 0-.1-.8 1.5 1.5 0 0 0 .1-.7 4.2 4.2 0 0 1 4.8-3.2 4.1 4.1 0 0 1 3.2 3.2 3.8 3.8 0 0 1 0 1.5zm-24.4-20.9v-2a1.1 1.1 0 0 1 .8 1.1h1.6a2.5 2.5 0 0 0-2.4-2.5v-1.2h-1v1.2a2.4 2.4 0 0 0-2.6 2.5c0 1.7 1.4 2.2 2.6 2.5v2.1a1.1 1.1 0 0 1-1.1-1.1h-1.7a2.8 2.8 0 0 0 2.7 2.8h.1v1.2h1v-1.2a2.5 2.5 0 0 0 2.6-2.5c0-1.7-1.2-2.2-2.6-2.6zm-1-.3c-.5-.1-.9-.4-.9-.8a.9.9 0 0 1 .9-.9zm1 4V181c.4.2.9.3.9.9s-.5.8-.9.9z" class="cls-2"/><path d="M215.8 194.9v1.5h5.5v-1.5zm12.6 0v1.5h18.5v-1.5zm25.5 0v1.5h6.7v-1.5z" class="cls-2"/><path d="M313.8 180.8h3.5l7.2-6a2.8 2.8 0 0 1 2-.8h5.9a2.8 2.8 0 0 1 2.7 2.2l1.9 8.5c0 .1-.1.3-.2.3h-.1c-1 .1-4.5-.1-7.6-5.1 0 0 1 8.3-6.1 9m-9.2 7.9h3.6l4 1.6h8.1" class="cls-10"/><path d="M330.7 193.6h4.3a2.5 2.5 0 0 1 2.5 2.5v.3a2.4 2.4 0 0 1-2.4 2.4h-4.3a2.5 2.5 0 0 1-2.5-2.5v-.3a2.4 2.4 0 0 1 2.4-2.4zM345.5 187.6h-2.3a2.6 2.6 0 0 1-2.7-2.6v-.4a2.8 2.8 0 0 1 2.7-2.7h1.6" class="cls-10"/><path d="M345.5 182h-1.7a2.6 2.6 0 0 1-2.6-2.6v-.4a2.6 2.6 0 0 1 2.6-2.6h9.4m-9.1 11.2a2.6 2.6 0 0 0-2.6 2.6v.8a2.6 2.6 0 0 0 2.6 2.6h2.5m-10.2 0h-5.1a2.6 2.6 0 0 1-2.8-2.5 2.6 2.6 0 0 1 2.5-2.7h5.4a2.6 2.6 0 0 1 2.4 2.7 2.5 2.5 0 0 1-2.4 2.5z" class="cls-10"/><path d="M336.6 182.9a2.8 2.8 0 0 1 2.4 3.1 2.9 2.9 0 0 1-2.6 2.4h-5.1a2.8 2.8 0 0 1 .2-5.5m3.9-5.5h1.1a2.8 2.8 0 0 1 2.5 3 2.9 2.9 0 0 1-2.4 2.5m30.6 14.1h-4.7l-4.1 2h-13a2.6 2.6 0 0 1-2.6-2.6v-.2a2.6 2.6 0 0 1 2.6-2.6m-.8-17.2l1.5-1.7a3.3 3.3 0 0 1 2.1-.9h4.7a5.5 5.5 0 0 1 3.8 1.6l6.3 5.2h4.2" class="cls-10"/><path d="M370 185.7a3.2 3.2 0 1 1-3.1 3.1 3.1 3.1 0 0 1 3.1-3.1m0-1a4.1 4.1 0 0 0-4.1 4.1 4.2 4.2 0 1 0 8.3 0 4.1 4.1 0 0 0-4.2-4.1" class="cls-2"/><path d="M372.9 182.4V179a.4.4 0 0 0-.4-.4h-4.9a.4.4 0 0 0-.4.4v3.5m0 12.6v3.5c0 .2.2.3.4.3h4.9c.2 0 .4-.1.4-.3v-3.5" class="cls-10"/><path d="M375.6 188.8a5.9 5.9 0 0 0-1.6-3.9v-2.5h-7.9v2.5a5.6 5.6 0 0 0 0 7.8v2.4h7.9v-2.4a5.5 5.5 0 0 0 1.6-3.9z" class="cls-10"/><path d="M370 188.8v-1.9m0 1.9h1.4m-4.2-8.2h5.7m-5.7 16.4h5.7" class="cls-11"/><path d="M308.1 195.1v3.1a.4.4 0 0 0 .4.4h4.9a.4.4 0 0 0 .4-.4V179a.4.4 0 0 0-.4-.4h-4.9a.4.4 0 0 0-.4.4zm0-15.6h5.7m-5.7 2.9h5.7m-5.7 12.2h5.7m-5.7 2.9h5.7" class="cls-10"/><path d="M308.1 190.7v.7h5.7v-5.7h-5.7v5z" class="cls-10"/><path d="M312.3 185.9a1.3 1.3 0 0 1-1.3 1.3 1.3 1.3 0 0 1-1.4-1.3" class="cls-11"/><g class="cls-3"><g class="cls-3"><path d="M2.8 147.3a2.1 2.1 0 0 1 1.7.6 1.3 1.3 0 0 1 .4 1 1.3 1.3 0 0 1-1 1.4c.6.1.7.7.8 1.2a3.7 3.7 0 0 0 .4 1.5H3.8a2 2 0 0 1-.3-1.1c-.1-.3-.1-.7-.5-.8H1.7v1.9H.4v-5.7zm-1.1 2.6h.7c.6 0 1.2 0 1.2-.8s-.4-.7-.9-.7h-1z" class="cls-2"/></g><g class="cls-3"><path d="M10.5 153H9.1l-.4-1.2H6.9l-.3 1.2H5.2l1.9-5.7h1.4zm-2.1-2.2l-.6-2.2-.6 2.2z" class="cls-2"/></g><g class="cls-3"><path d="M17 147.3l-1.5 5.7h-1.2l-.8-3.8-.8 3.8h-1.2l-1.6-5.7h1.3l.9 3.8.8-3.8h1.2l.8 3.8.9-3.8zM25.6 153h-1.2s0-2.7.1-4.1l-1.1 4.1h-1.3l-1.1-4.1v4.1h-1.1v-5.7h1.7l1.1 4.2 1.1-4.2h1.8z" class="cls-2"/></g><g class="cls-3"><path d="M31.4 153H30l-.4-1.2h-1.8l-.3 1.2H26l2-5.7h1.4zm-2.1-2.2l-.6-2.2-.6 2.2z" class="cls-2"/></g><g class="cls-3"><path d="M33.7 153h-1.3v-4.6h-1.7v-1.1h4.6v1.1h-1.6zM39.7 150.5h-2.6v1.5H40v1h-4.2v-5.7h4.1v1.1h-2.8v1.1h2.6zM43 147.3a2.1 2.1 0 0 1 1.7.6 1.3 1.3 0 0 1 .4 1 1.3 1.3 0 0 1-1 1.4c.6.1.7.7.8 1.2a3.7 3.7 0 0 0 .4 1.5H44a2 2 0 0 1-.3-1.1c-.1-.3-.1-.7-.5-.8h-1.3v1.9h-1.3v-5.7zm-1.1 2.6h.7c.6 0 1.2 0 1.2-.8s-.4-.7-.9-.7h-1zM47.1 153h-1.3v-5.7h1.3zM52.9 153h-1.4l-.4-1.2h-1.8l-.4 1.2h-1.4l1.9-5.7h1.5zm-2.1-2.2l-.6-2.2-.6 2.2z" class="cls-2"/></g><g class="cls-3"><path d="M57.2 151.9v1.1h-3.9v-5.7h1.3v4.6z" class="cls-2"/></g><g class="cls-3"><path d="M60.9 149.1a1 1 0 0 0-1.1-.9q-.9 0-.9.6c0 .4.3.5.9.6l.7.2c.5.1 1.7.4 1.7 1.7s-.4 1.8-2.4 1.8-2.3-.4-2.4-1.9h1.3c0 .7.4 1 1.2 1s1-.1 1-.7-.5-.6-1.1-.7h-.4c-1.1-.2-1.8-.7-1.8-1.7s1.5-1.7 2.3-1.7 2.2.6 2.2 1.8z" class="cls-2"/></g></g><path d="M3.4 114.7h55.8m-28.3 0L16.2 138m18.4-23.3l-10 23.3m13.8-23.3L31.7 138m9.8-23.3L38.6 138m6.6-23.3V138m14-18.5H48.4m10.8 5.2H48.4m10.8 6.2H48.4m10.8 7.1H48.4m-35.8 0H3.7m13-7.1h-13m16.4-6.2H3.7m19.8-5H3.7" class="cls-10"/><path d="M32 100a6.7 6.7 0 0 1-.6 2.8 8.9 8.9 0 0 1-.7-2.8 8.9 8.9 0 0 1 .7-2.8 6.7 6.7 0 0 1 .6 2.8" class="cls-2"/><path d="M32 100a6.7 6.7 0 0 1-.6 2.8 8.9 8.9 0 0 1-.7-2.8 8.9 8.9 0 0 1 .7-2.8 6.7 6.7 0 0 1 .6 2.8z" class="cls-12"/><path d="M33.2 101.1a6.6 6.6 0 0 1-1.9 1.8 6 6 0 0 1 2.7-4.2 5 5 0 0 1-.9 2.4" class="cls-2"/><path d="M33.2 101.1a6.6 6.6 0 0 1-1.9 1.8 6 6 0 0 1 2.7-4.2 6.2 6.2 0 0 1-.8 2.4z" class="cls-12"/><path d="M33.9 102.7a7.4 7.4 0 0 1-2.6.2 5.8 5.8 0 0 1 4.8-1.4 5.9 5.9 0 0 1-2.2 1.2" class="cls-2"/><path d="M33.9 102.7a7.4 7.4 0 0 1-2.6.2 5.8 5.8 0 0 1 4.8-1.4 5.9 5.9 0 0 1-2.2 1.2z" class="cls-12"/><path d="M32.6 103.9l-1.3-1a4.1 4.1 0 0 1 1.6.3 4 4 0 0 1 1.2 1l-1.5-.3" class="cls-2"/><path d="M32.6 103.9l-1.3-1a4.1 4.1 0 0 1 1.6.3 4 4 0 0 1 1.2 1z" class="cls-12"/><path d="M29.5 101.1a7.7 7.7 0 0 0 1.8 1.8 5.9 5.9 0 0 0-2.6-4.2 6.2 6.2 0 0 0 .8 2.4" class="cls-2"/><path d="M29.5 101.1a7.7 7.7 0 0 0 1.8 1.8 5.9 5.9 0 0 0-2.6-4.2 6.2 6.2 0 0 0 .8 2.4z" class="cls-12"/><path d="M28.8 102.7a7.1 7.1 0 0 0 2.5.2 5.6 5.6 0 0 0-4.8-1.4 7.2 7.2 0 0 0 2.3 1.2" class="cls-2"/><path d="M28.8 102.7a7.1 7.1 0 0 0 2.5.2 5.6 5.6 0 0 0-4.8-1.4 7.2 7.2 0 0 0 2.3 1.2z" class="cls-12"/><path d="M30.1 103.9a4 4 0 0 0 1.2-1 3.5 3.5 0 0 0-2.7 1.3l1.5-.3" class="cls-2"/><path d="M30.1 103.9a4 4 0 0 0 1.2-1 3.5 3.5 0 0 0-2.7 1.3z" class="cls-12"/><path d="M42.9 114.5v-8.8a11.6 11.6 0 1 0-23.1-.1v8.8" class="cls-10"/><path d="M26.5 114.5V107h9.6v7.5m-9.6-4.9h9.6m-9.6 2.6h9.6" class="cls-10"/></g></g></g></svg>