<svg xmlns="http://www.w3.org/2000/svg" xmlns:xlink="http://www.w3.org/1999/xlink" width="1.514in" height="0.417in"><path fill-rule="evenodd"  fill="rgb(255, 255, 255)" d="M19.855,18.917 C19.855,16.125 17.924,14.914 16.928,14.490 L16.853,14.460 L16.929,14.429 C17.653,14.164 19.397,13.083 19.397,10.675 C19.397,7.180 16.746,5.929 13.331,5.929 L5.984,5.929 L5.984,24.342 L13.612,24.342 C16.262,24.342 19.855,23.299 19.855,18.917 ZM10.010,9.372 L12.719,9.372 C13.866,9.372 15.395,9.554 15.395,11.276 C15.395,12.918 13.917,13.023 12.541,13.023 L10.010,13.023 L10.010,9.372 ZM10.010,20.951 L10.010,16.335 L12.898,16.335 C14.070,16.335 15.752,16.570 15.752,18.604 C15.752,20.274 14.554,20.951 12.439,20.951 L10.010,20.951 ZM60.752,24.733 C62.018,24.733 63.307,24.367 64.093,23.311 C64.122,23.272 64.184,23.292 64.183,23.342 L64.173,24.342 L67.888,24.342 L67.888,5.929 L64.091,5.929 L64.091,11.702 L64.038,11.726 C63.134,10.972 62.106,10.545 60.931,10.545 C56.930,10.545 55.120,14.092 55.120,17.769 C55.120,21.212 57.006,24.733 60.752,24.733 ZM61.593,13.958 C63.785,13.958 64.218,15.891 64.218,17.717 C64.218,19.491 63.759,21.295 61.644,21.295 C59.478,21.295 58.943,19.439 58.943,17.587 C58.943,15.891 59.580,13.958 61.593,13.958 ZM75.428,24.733 C78.333,24.733 80.831,23.325 81.774,20.430 L78.002,20.169 C77.441,21.187 76.702,21.604 75.530,21.604 C73.797,21.604 72.905,20.378 72.676,18.709 L81.927,18.709 L81.927,18.056 C81.927,13.884 79.837,10.440 75.428,10.440 C71.376,10.440 68.751,13.544 68.751,17.587 C68.751,21.734 71.249,24.733 75.428,24.733 ZM75.530,13.466 C76.881,13.466 77.849,14.431 77.977,15.787 L72.701,15.787 C73.109,14.248 73.925,13.466 75.530,13.466 ZM0.500,29.515 L100.924,29.515 L100.924,0.981 L0.500,0.981 L0.500,29.515 ZM2.423,3.334 C2.423,3.122 2.592,2.949 2.800,2.949 L98.625,2.949 C98.833,2.949 99.001,3.122 99.001,3.334 L99.001,27.161 C99.001,27.374 98.833,27.547 98.625,27.547 L2.800,27.547 C2.592,27.547 2.423,27.374 2.423,27.161 L2.423,3.334 ZM24.867,17.692 C24.867,16.074 25.172,14.040 27.874,14.040 C28.205,14.040 28.409,14.066 28.766,14.118 L28.766,10.623 C28.434,10.571 28.282,10.571 28.103,10.571 C26.612,10.571 25.499,11.089 24.780,12.668 C24.758,12.718 24.685,12.702 24.685,12.647 L24.688,10.832 L21.019,10.832 L21.019,24.342 L24.867,24.342 L24.867,17.692 ZM46.210,16.909 C46.210,15.474 46.694,13.858 48.478,13.858 C49.956,13.858 50.440,15.136 50.440,16.439 L50.440,24.342 L54.288,24.342 L54.288,16.101 C54.288,14.275 54.033,12.632 52.530,11.458 C51.740,10.832 50.746,10.571 49.752,10.571 C48.254,10.571 47.075,11.221 46.165,12.376 L46.108,12.356 L46.108,10.884 L42.438,10.884 L42.438,24.342 L46.210,24.342 L46.210,16.909 ZM35.315,15.787 L33.531,16.048 C31.059,16.413 28.817,17.430 28.817,20.378 C28.817,23.247 31.008,24.733 33.429,24.733 C35.470,24.733 36.253,24.005 37.428,23.204 C37.461,23.182 37.507,23.206 37.506,23.247 L37.503,24.342 L41.177,24.342 L41.177,15.526 C41.177,11.510 38.781,10.440 35.188,10.440 C33.965,10.440 29.785,10.623 29.556,15.109 L33.022,15.109 C33.022,13.936 33.965,13.414 35.341,13.414 C35.952,13.414 37.354,13.544 37.354,14.666 C37.354,15.526 36.437,15.631 35.315,15.787 ZM37.456,17.874 L37.456,19.301 C37.456,19.840 37.247,20.361 36.866,20.732 C35.880,21.690 34.602,21.708 34.372,21.708 C33.608,21.708 32.614,21.369 32.614,20.247 C32.614,18.500 35.494,18.474 36.538,18.187 C36.870,18.109 37.099,18.005 37.456,17.874 ZM88.305,24.733 C89.567,24.733 90.851,24.369 91.637,23.322 C91.670,23.279 91.738,23.304 91.738,23.359 L91.738,24.342 L95.441,24.342 L95.441,5.929 L91.643,5.929 L91.643,11.702 L91.591,11.726 C90.686,10.972 89.658,10.545 88.483,10.545 C84.482,10.545 82.673,14.092 82.673,17.769 C82.673,21.212 84.559,24.733 88.305,24.733 ZM89.146,13.958 C91.338,13.958 91.771,15.891 91.771,17.717 C91.771,19.491 91.312,21.295 89.197,21.295 C87.031,21.295 86.496,19.439 86.496,17.587 C86.496,15.891 87.133,13.958 89.146,13.958 ZM102.242,1.643 L103.165,1.643 L103.165,4.407 L103.852,4.407 L103.852,1.643 L104.766,1.643 L104.766,0.981 L102.242,0.981 L102.242,1.643 ZM107.765,0.981 L106.895,3.272 L106.022,0.981 L105.274,0.981 L105.274,4.407 L105.953,4.407 L105.952,4.266 C105.952,4.266 105.943,3.300 105.938,2.526 L106.632,4.407 L107.133,4.407 L107.836,2.552 C107.826,3.311 107.818,4.266 107.818,4.266 L107.817,4.407 L108.500,4.407 L108.500,0.981 L107.765,0.981 Z"/></svg>